<svg id="svg" xmlns="http://www.w3.org/2000/svg" xmlns:xlink="http://www.w3.org/1999/xlink" width="400" height="100.032" viewBox="0, 0, 400,100.032" version="1.1"><g id="svgg"><path id="path0" d="M68.544 27.297 L 65.888 28.471 65.869 28.758 L 65.849 29.045 66.241 29.254 C 67.008 29.662,67.321 30.172,67.457 31.232 C 67.581 32.208,67.504 55.959,67.374 56.636 C 67.162 57.743,66.790 58.345,66.142 58.631 C 65.865 58.754,65.856 58.767,65.856 59.043 L 65.856 59.328 69.600 59.328 L 73.344 59.328 73.344 59.038 C 73.344 58.757,73.335 58.743,73.072 58.630 C 72.470 58.369,72.076 57.774,71.901 56.861 C 71.703 55.822,71.681 54.216,71.681 40.348 L 71.680 26.392 71.491 26.252 C 71.248 26.072,71.580 25.955,68.544 27.297 M165.440 27.288 L 162.784 28.457 162.765 28.749 L 162.746 29.040 163.102 29.241 C 163.782 29.625,164.093 30.032,164.272 30.774 C 164.402 31.310,164.475 52.124,164.356 54.848 C 164.245 57.398,163.994 58.125,163.059 58.599 C 162.761 58.750,162.752 58.763,162.752 59.041 L 162.752 59.328 166.496 59.328 L 170.240 59.328 170.240 59.048 C 170.240 58.771,170.235 58.765,169.884 58.593 C 169.242 58.279,168.899 57.677,168.696 56.512 C 168.646 56.228,168.615 54.010,168.596 49.499 L 168.569 42.901 169.069 42.516 C 174.186 38.572,178.559 39.635,179.076 44.948 C 179.191 46.129,179.116 55.944,178.987 56.636 C 178.782 57.737,178.408 58.344,177.758 58.631 C 177.481 58.754,177.472 58.767,177.472 59.043 L 177.472 59.328 181.216 59.328 L 184.960 59.328 184.960 59.038 C 184.960 58.757,184.951 58.743,184.688 58.630 C 184.150 58.397,183.766 57.888,183.585 57.168 C 183.363 56.286,183.341 55.716,183.294 49.664 C 183.243 43.107,183.255 43.319,182.876 42.191 C 181.815 39.029,177.996 37.670,173.953 39.015 C 172.565 39.477,170.417 40.728,168.784 42.027 L 168.576 42.192 168.576 34.309 L 168.576 26.426 168.400 26.271 C 168.165 26.064,168.418 25.977,165.440 27.288 M348.864 27.288 L 346.208 28.457 346.189 28.749 L 346.170 29.040 346.526 29.241 C 347.206 29.625,347.517 30.032,347.696 30.774 C 347.826 31.310,347.899 52.124,347.780 54.848 C 347.669 57.398,347.418 58.125,346.483 58.599 C 346.185 58.750,346.176 58.763,346.176 59.041 L 346.176 59.328 349.920 59.328 L 353.664 59.328 353.664 59.048 C 353.664 58.771,353.659 58.765,353.308 58.593 C 352.666 58.279,352.323 57.677,352.120 56.512 C 352.070 56.228,352.039 54.010,352.020 49.499 L 351.993 42.901 352.493 42.516 C 357.610 38.572,361.983 39.635,362.500 44.948 C 362.615 46.129,362.540 55.944,362.411 56.636 C 362.206 57.737,361.832 58.344,361.182 58.631 C 360.905 58.754,360.896 58.767,360.896 59.043 L 360.896 59.328 364.640 59.328 L 368.384 59.328 368.384 59.038 C 368.384 58.757,368.375 58.743,368.112 58.630 C 367.574 58.397,367.190 57.888,367.009 57.168 C 366.787 56.286,366.765 55.716,366.718 49.664 C 366.667 43.107,366.679 43.319,366.300 42.191 C 365.239 39.029,361.420 37.670,357.377 39.015 C 355.989 39.477,353.841 40.728,352.208 42.027 L 352.000 42.192 352.000 34.309 L 352.000 26.426 351.824 26.271 C 351.589 26.064,351.842 25.977,348.864 27.288 M21.666 31.139 C 20.611 31.614,19.728 32.023,19.703 32.049 C 19.678 32.075,19.813 32.432,20.001 32.843 C 20.482 33.889,20.558 34.410,20.340 35.136 C 20.181 35.663,12.435 54.826,12.089 55.548 C 11.365 57.058,10.565 58.017,9.605 58.521 L 9.152 58.759 9.152 59.043 L 9.152 59.328 11.520 59.328 L 13.888 59.328 13.888 59.049 C 13.888 58.777,13.880 58.766,13.601 58.660 C 13.210 58.511,12.834 58.074,12.733 57.652 C 12.522 56.772,12.773 55.910,14.423 51.840 L 15.733 48.608 21.220 48.608 L 26.707 48.608 27.946 51.584 C 30.711 58.222,30.699 58.178,29.827 58.623 C 29.583 58.747,29.568 58.771,29.568 59.041 L 29.568 59.328 33.280 59.328 L 36.992 59.328 36.992 59.043 C 36.992 58.770,36.978 58.750,36.647 58.530 C 36.209 58.239,35.439 57.435,35.084 56.896 C 34.497 56.006,33.747 54.287,28.804 42.498 C 25.992 35.794,23.668 30.301,23.638 30.292 C 23.608 30.283,22.721 30.664,21.666 31.139 M140.864 30.860 C 140.864 31.130,140.872 31.140,141.219 31.321 C 141.873 31.663,142.185 32.200,142.385 33.324 C 142.510 34.031,142.585 53.935,142.468 55.561 C 142.330 57.487,141.999 58.256,141.146 58.633 C 140.874 58.754,140.864 58.768,140.864 59.043 L 140.864 59.328 144.704 59.328 L 148.544 59.328 148.544 59.053 C 148.544 58.791,148.530 58.771,148.263 58.641 C 147.024 58.039,146.880 57.311,146.880 51.649 L 146.880 48.015 149.040 47.983 C 155.355 47.889,159.057 45.817,160.500 41.568 C 162.209 36.533,159.529 32.181,153.981 30.985 C 152.385 30.641,152.294 30.636,146.384 30.609 L 140.864 30.584 140.864 30.860 M150.142 31.395 C 154.571 32.183,157.189 36.661,156.165 41.698 C 155.369 45.610,153.164 47.247,148.560 47.341 L 146.880 47.375 146.880 39.339 L 146.880 31.304 147.120 31.274 C 147.622 31.212,149.550 31.289,150.142 31.395 M40.158 31.545 C 38.624 32.097,37.834 33.920,38.510 35.346 C 39.648 37.750,43.100 37.466,43.756 34.914 C 44.309 32.767,42.212 30.805,40.158 31.545 M78.494 31.545 C 76.960 32.097,76.170 33.920,76.846 35.346 C 77.984 37.750,81.436 37.466,82.092 34.914 C 82.645 32.767,80.548 30.805,78.494 31.545 M214.549 36.048 L 211.465 38.752 211.461 39.088 L 211.456 39.424 212.768 39.424 L 214.080 39.424 214.080 46.905 C 214.080 54.410,214.098 55.144,214.313 56.192 C 214.818 58.653,216.199 59.784,218.592 59.692 C 220.488 59.620,221.828 58.879,224.026 56.688 L 225.107 55.610 224.905 55.401 L 224.702 55.192 224.046 55.843 C 222.204 57.667,219.600 57.703,218.721 55.916 C 218.252 54.965,218.273 55.370,218.272 46.976 L 218.272 39.456 221.385 39.439 L 224.498 39.423 224.541 39.195 C 224.564 39.069,224.599 38.926,224.619 38.875 C 224.649 38.797,224.200 38.784,221.447 38.784 L 218.240 38.784 218.240 36.064 L 218.240 33.344 217.936 33.344 L 217.632 33.344 214.549 36.048 M127.866 35.299 C 126.110 35.617,124.035 36.928,122.932 38.416 C 122.622 38.834,122.592 38.857,122.406 38.818 C 119.871 38.284,117.672 38.472,115.872 39.376 C 110.225 42.212,109.557 49.310,114.672 52.135 C 115.091 52.366,115.129 52.300,114.260 52.864 C 112.835 53.789,112.050 54.697,111.834 55.665 C 111.484 57.239,112.446 58.787,114.097 59.309 C 114.518 59.443,114.538 59.409,113.687 59.983 C 110.386 62.208,109.069 64.381,109.565 66.784 C 110.135 69.545,113.629 71.141,117.888 70.586 C 125.390 69.607,132.316 62.786,130.199 58.462 C 129.426 56.885,128.033 56.506,121.600 56.127 C 117.316 55.874,116.499 55.779,115.575 55.429 C 114.164 54.894,114.034 53.739,115.282 52.820 L 115.588 52.594 116.114 52.758 C 120.146 54.013,123.915 52.855,126.504 49.566 C 128.116 47.517,128.347 44.173,127.031 41.935 C 126.489 41.014,125.049 39.833,123.848 39.324 C 123.527 39.188,123.264 39.059,123.264 39.036 C 123.264 38.957,123.893 38.174,124.169 37.908 L 124.448 37.640 125.664 38.023 C 128.809 39.016,129.755 39.022,130.723 38.053 C 131.357 37.420,131.734 36.379,131.497 35.921 C 131.183 35.313,129.438 35.015,127.866 35.299 M277.178 35.299 C 275.422 35.617,273.347 36.928,272.244 38.416 C 271.934 38.834,271.904 38.857,271.718 38.818 C 269.183 38.284,266.984 38.472,265.184 39.376 C 259.537 42.212,258.869 49.310,263.984 52.135 C 264.403 52.366,264.441 52.300,263.572 52.864 C 262.147 53.789,261.362 54.697,261.146 55.665 C 260.796 57.239,261.758 58.787,263.409 59.309 C 263.830 59.443,263.850 59.409,262.999 59.983 C 259.698 62.208,258.381 64.381,258.877 66.784 C 259.447 69.545,262.941 71.141,267.200 70.586 C 274.702 69.607,281.628 62.786,279.511 58.462 C 278.738 56.885,277.345 56.506,270.912 56.127 C 266.628 55.874,265.811 55.779,264.887 55.429 C 263.476 54.894,263.346 53.739,264.594 52.820 L 264.900 52.594 265.426 52.758 C 269.458 54.013,273.227 52.855,275.816 49.566 C 277.428 47.517,277.659 44.173,276.343 41.935 C 275.801 41.014,274.361 39.833,273.160 39.324 C 272.839 39.188,272.576 39.059,272.576 39.036 C 272.576 38.957,273.205 38.174,273.481 37.908 L 273.760 37.640 274.976 38.023 C 278.121 39.016,279.067 39.022,280.035 38.053 C 280.669 37.420,281.046 36.379,280.809 35.921 C 280.495 35.313,278.750 35.015,277.178 35.299 M23.760 41.585 C 25.194 45.025,26.368 47.862,26.368 47.888 C 26.368 47.914,24.033 47.936,21.179 47.936 C 18.111 47.936,15.998 47.912,16.011 47.878 C 16.238 47.261,21.095 35.328,21.118 35.329 C 21.137 35.329,22.326 38.144,23.760 41.585 M240.320 36.805 C 239.393 36.945,238.615 37.102,238.432 37.185 C 238.362 37.217,238.131 37.291,237.920 37.350 C 237.046 37.595,234.663 38.693,234.526 38.915 C 234.505 38.950,234.377 39.034,234.242 39.103 C 234.108 39.172,233.958 39.266,233.911 39.312 C 233.863 39.358,233.723 39.466,233.600 39.550 C 232.264 40.470,230.440 42.513,229.649 43.976 C 229.552 44.156,229.377 44.480,229.260 44.696 C 228.999 45.179,228.515 46.352,228.377 46.839 C 228.320 47.037,228.220 47.362,228.155 47.561 C 227.926 48.251,227.694 50.110,227.691 51.264 C 227.686 53.560,228.259 56.002,229.231 57.828 C 229.364 58.077,229.540 58.408,229.622 58.564 C 230.794 60.780,233.175 63.038,235.699 64.327 C 241.723 67.404,249.392 65.818,253.536 60.640 C 253.677 60.464,253.831 60.280,253.878 60.230 C 253.925 60.180,254.032 60.036,254.115 59.910 C 254.198 59.783,254.386 59.507,254.532 59.296 C 254.678 59.085,254.874 58.770,254.967 58.596 C 255.484 57.628,255.690 57.209,255.816 56.864 C 255.894 56.653,255.978 56.451,256.005 56.416 C 256.062 56.339,256.351 55.385,256.518 54.720 C 257.060 52.569,257.008 48.984,256.413 47.424 C 256.366 47.301,256.265 46.984,256.189 46.720 C 256.113 46.456,256.030 46.211,256.004 46.176 C 255.979 46.141,255.906 45.968,255.842 45.792 C 255.057 43.636,252.918 40.874,251.008 39.551 C 250.885 39.466,250.745 39.359,250.698 39.313 C 250.651 39.267,250.521 39.183,250.410 39.127 C 250.299 39.071,250.159 38.982,250.100 38.930 C 249.685 38.567,247.625 37.613,246.688 37.351 C 246.477 37.291,246.246 37.217,246.176 37.185 C 245.235 36.757,242.017 36.548,240.320 36.805 M244.256 37.443 C 246.629 37.768,249.114 38.857,251.102 40.440 C 252.109 41.242,253.520 42.828,254.123 43.833 C 255.179 45.595,255.699 46.962,256.111 49.056 C 256.318 50.109,256.245 53.316,255.995 54.112 C 255.962 54.218,255.878 54.545,255.808 54.840 C 255.555 55.904,254.931 57.415,254.365 58.336 C 254.235 58.547,254.077 58.811,254.013 58.922 C 253.949 59.033,253.853 59.177,253.800 59.242 C 253.747 59.307,253.528 59.595,253.313 59.882 C 252.331 61.195,250.585 62.696,249.107 63.495 C 248.924 63.594,248.722 63.705,248.659 63.741 C 245.220 65.711,239.388 65.711,235.949 63.741 C 235.886 63.705,235.684 63.594,235.501 63.495 C 235.205 63.335,234.784 63.069,234.304 62.738 C 233.050 61.874,230.592 59.348,230.592 58.923 C 230.592 58.902,230.476 58.705,230.334 58.485 C 228.506 55.657,227.860 51.377,228.743 47.936 C 229.632 44.468,231.578 41.701,234.555 39.675 C 236.455 38.381,238.880 37.539,241.248 37.351 C 241.780 37.309,243.710 37.368,244.256 37.443 M241.600 37.974 C 241.600 37.987,241.713 38.195,241.850 38.438 C 241.988 38.681,242.253 39.154,242.440 39.488 C 242.627 39.822,242.831 40.182,242.893 40.288 C 242.956 40.394,243.095 40.638,243.203 40.832 C 243.311 41.026,243.484 41.328,243.587 41.504 C 243.690 41.680,243.878 42.011,244.003 42.240 C 244.128 42.469,244.347 42.858,244.490 43.104 C 244.632 43.350,244.829 43.696,244.928 43.872 C 245.223 44.400,245.640 45.135,245.799 45.408 C 245.881 45.549,246.052 45.851,246.178 46.080 C 246.304 46.309,246.517 46.683,246.650 46.912 C 246.784 47.141,247.008 47.530,247.148 47.776 C 247.288 48.022,247.470 48.339,247.553 48.480 C 247.636 48.621,247.793 48.894,247.902 49.088 C 248.133 49.497,248.264 49.719,248.585 50.249 L 248.818 50.633 249.232 49.941 C 249.460 49.560,249.696 49.150,249.758 49.030 C 249.819 48.910,249.896 48.781,249.929 48.742 C 249.961 48.704,250.106 48.470,250.249 48.224 C 250.393 47.978,250.628 47.574,250.771 47.328 C 250.915 47.082,251.151 46.678,251.297 46.432 C 251.442 46.186,251.581 45.941,251.604 45.888 C 251.628 45.835,251.765 45.605,251.910 45.376 C 252.054 45.147,252.238 44.845,252.318 44.704 C 252.398 44.563,252.598 44.222,252.762 43.946 L 253.061 43.443 252.907 43.242 C 252.053 42.124,251.124 41.237,249.813 40.288 C 248.726 39.501,246.494 38.531,245.184 38.276 C 243.994 38.044,241.600 37.843,241.600 37.974 M239.782 38.212 C 237.684 38.585,235.111 39.831,233.581 41.214 C 232.305 42.369,231.159 43.817,230.503 45.104 L 230.397 45.312 237.699 45.312 L 245.002 45.312 244.840 45.040 C 244.752 44.890,244.569 44.570,244.436 44.327 C 244.302 44.085,244.149 43.811,244.096 43.719 C 244.043 43.627,243.876 43.336,243.725 43.072 C 243.574 42.808,243.424 42.549,243.392 42.496 C 243.360 42.443,243.174 42.112,242.979 41.760 C 242.783 41.408,242.595 41.077,242.560 41.024 C 242.525 40.971,242.410 40.770,242.305 40.576 C 242.199 40.382,242.013 40.051,241.892 39.840 C 241.658 39.433,241.389 38.959,241.093 38.432 C 240.875 38.043,240.799 38.031,239.782 38.212 M40.272 39.611 L 37.568 40.800 37.568 41.088 C 37.568 41.372,37.573 41.378,37.922 41.561 C 39.197 42.227,39.229 42.417,39.229 49.408 C 39.229 57.329,39.116 58.077,37.840 58.630 C 37.577 58.743,37.568 58.757,37.568 59.038 L 37.568 59.328 41.312 59.328 L 45.056 59.328 45.056 59.043 C 45.056 58.767,45.047 58.754,44.770 58.631 C 44.358 58.449,43.950 58.001,43.779 57.543 C 43.435 56.623,43.438 56.720,43.411 47.381 L 43.386 38.731 43.181 38.576 L 42.976 38.421 40.272 39.611 M78.608 39.611 L 75.904 40.800 75.904 41.088 C 75.904 41.372,75.909 41.378,76.258 41.561 C 77.533 42.227,77.565 42.417,77.565 49.408 C 77.565 57.329,77.452 58.077,76.176 58.630 C 75.913 58.743,75.904 58.757,75.904 59.038 L 75.904 59.328 79.648 59.328 L 83.392 59.328 83.392 59.043 C 83.392 58.767,83.383 58.754,83.106 58.631 C 82.694 58.449,82.286 58.001,82.115 57.543 C 81.771 56.623,81.774 56.720,81.747 47.381 L 81.722 38.731 81.517 38.576 L 81.312 38.421 78.608 39.611 M88.464 39.611 L 85.760 40.800 85.760 41.088 C 85.760 41.372,85.765 41.378,86.114 41.561 C 87.389 42.227,87.421 42.417,87.421 49.408 C 87.421 57.329,87.308 58.077,86.032 58.630 C 85.769 58.743,85.760 58.757,85.760 59.038 L 85.760 59.328 89.504 59.328 L 93.248 59.328 93.248 59.043 C 93.248 58.767,93.239 58.754,92.962 58.631 C 92.550 58.449,92.142 58.001,91.971 57.543 C 91.638 56.653,91.632 56.527,91.603 49.466 L 91.576 42.900 92.172 42.451 C 96.051 39.525,99.480 39.355,101.191 42.003 C 102.094 43.399,102.159 44.013,102.128 50.784 C 102.097 57.706,102.042 58.019,100.761 58.641 C 100.494 58.771,100.480 58.791,100.480 59.053 L 100.480 59.328 104.224 59.328 L 107.968 59.328 107.968 59.041 C 107.968 58.763,107.959 58.750,107.660 58.598 C 107.288 58.410,106.914 58.011,106.750 57.627 C 106.423 56.865,106.418 56.776,106.367 50.272 C 106.336 46.372,106.293 44.020,106.247 43.712 C 105.732 40.255,103.719 38.579,100.064 38.565 C 97.319 38.555,95.191 39.437,91.888 41.956 L 91.584 42.188 91.584 40.462 L 91.584 38.735 91.376 38.578 L 91.168 38.421 88.464 39.611 M283.920 39.611 L 281.216 40.800 281.216 41.088 C 281.216 41.372,281.221 41.378,281.570 41.561 C 282.845 42.227,282.877 42.417,282.877 49.408 C 282.877 57.329,282.764 58.077,281.488 58.630 C 281.225 58.743,281.216 58.757,281.216 59.038 L 281.216 59.328 284.960 59.328 L 288.704 59.328 288.704 59.043 C 288.704 58.767,288.695 58.754,288.418 58.631 C 287.745 58.334,287.376 57.711,287.181 56.544 C 287.013 55.538,287.018 45.541,287.187 44.928 C 287.517 43.729,288.223 42.546,289.196 41.560 L 289.583 41.168 290.614 41.479 C 295.002 42.801,296.476 42.673,297.380 40.889 C 298.198 39.274,297.461 38.527,295.052 38.528 C 291.801 38.530,288.823 40.316,287.315 43.168 L 287.044 43.680 287.042 41.208 L 287.040 38.735 286.832 38.578 L 286.624 38.421 283.920 39.611 M324.448 39.639 L 321.824 40.801 321.805 41.065 C 321.786 41.324,321.790 41.331,322.151 41.534 C 322.932 41.975,323.253 42.464,323.390 43.424 C 323.479 44.050,323.479 66.096,323.389 67.040 C 323.238 68.642,322.945 69.262,322.131 69.702 C 321.848 69.854,321.822 69.889,321.804 70.134 L 321.785 70.400 325.532 70.400 L 329.280 70.400 329.280 70.122 C 329.280 69.858,329.266 69.837,329.020 69.726 C 327.819 69.185,327.724 68.692,327.695 62.867 L 327.673 58.374 328.332 58.682 C 332.224 60.504,336.869 59.852,340.064 57.037 C 345.386 52.348,344.696 42.160,338.862 39.298 C 335.823 37.807,332.098 38.433,328.144 41.099 L 327.680 41.412 327.680 40.110 L 327.680 38.808 327.500 38.636 C 327.245 38.391,327.328 38.364,324.448 39.639 M54.080 38.598 C 50.114 39.108,47.709 41.544,47.895 44.864 C 48.056 47.761,49.329 48.841,54.720 50.659 C 59.392 52.235,60.504 53.157,60.505 55.456 C 60.506 58.219,57.566 59.701,54.179 58.645 C 51.873 57.926,49.625 55.724,48.227 52.814 C 47.971 52.282,47.861 52.195,47.629 52.343 C 47.557 52.388,47.871 57.398,47.964 57.698 C 48.073 58.046,50.860 59.091,52.466 59.386 C 57.305 60.274,61.106 59.031,62.525 56.096 C 63.715 53.634,63.489 50.998,61.956 49.470 C 60.948 48.465,59.906 47.939,56.763 46.850 C 51.778 45.124,50.472 44.078,50.646 41.953 C 50.875 39.164,55.379 38.123,58.450 40.150 C 59.693 40.970,60.803 42.211,61.595 43.664 C 61.796 44.033,61.855 44.096,62.003 44.095 C 62.351 44.093,62.344 44.153,62.241 42.012 C 62.188 40.923,62.145 39.923,62.145 39.790 C 62.143 39.022,56.857 38.241,54.080 38.598 M196.448 38.620 C 192.040 39.355,188.465 42.539,187.427 46.656 C 186.951 48.544,186.975 50.978,187.488 52.769 C 189.305 59.114,197.998 61.791,204.000 57.854 C 210.583 53.535,210.688 43.828,204.192 40.095 C 202.034 38.854,198.772 38.233,196.448 38.620 M308.992 38.623 C 306.368 39.011,303.728 40.546,301.744 42.835 L 301.422 43.206 301.604 43.396 C 301.826 43.628,301.785 43.646,302.263 43.104 C 303.923 41.221,305.952 40.219,308.256 40.146 C 311.595 40.041,313.597 41.813,313.772 45.027 L 313.810 45.734 310.841 46.588 C 302.530 48.981,300.309 50.420,299.902 53.676 C 299.429 57.470,302.483 60.239,306.496 59.652 C 309.074 59.275,311.359 57.161,312.859 53.766 C 313.124 53.166,313.708 51.475,313.741 51.210 C 313.749 51.152,313.772 52.688,313.793 54.624 C 313.846 59.636,313.592 59.286,317.200 59.316 L 319.552 59.335 319.552 59.045 C 319.552 58.761,319.544 58.750,319.240 58.596 C 318.632 58.288,318.263 57.679,318.074 56.672 C 318.027 56.420,317.984 54.325,317.950 50.592 C 317.922 47.459,317.880 44.795,317.858 44.672 C 317.836 44.549,317.788 44.261,317.750 44.032 C 317.074 39.943,313.787 37.912,308.992 38.623 M369.088 39.061 C 369.088 39.331,369.098 39.344,369.532 39.641 C 371.050 40.678,370.980 40.545,375.644 51.322 L 379.200 59.541 378.691 60.521 C 378.139 61.586,377.329 62.862,376.732 63.607 C 376.358 64.073,376.353 64.077,376.098 64.044 C 375.956 64.025,375.206 63.908,374.432 63.782 C 370.497 63.144,369.758 63.202,368.634 64.243 C 366.842 65.902,367.707 67.239,370.560 67.223 C 374.270 67.203,376.680 65.421,379.118 60.896 C 379.789 59.651,380.087 58.983,383.631 50.784 C 385.426 46.630,387.033 42.957,387.201 42.621 C 387.984 41.061,389.045 39.906,390.099 39.465 C 390.323 39.372,390.336 39.351,390.336 39.075 L 390.336 38.784 387.996 38.784 L 385.657 38.784 385.676 39.082 C 385.695 39.366,385.708 39.384,385.951 39.468 C 386.904 39.796,387.078 40.756,386.499 42.496 C 386.283 43.145,381.622 54.046,381.514 54.154 C 381.462 54.206,376.281 42.376,375.855 41.234 C 375.441 40.124,375.489 39.782,376.101 39.485 C 376.372 39.354,376.384 39.337,376.384 39.066 L 376.384 38.784 372.736 38.784 L 369.088 38.784 369.088 39.061 M119.826 39.320 C 123.942 40.876,125.720 50.292,122.254 52.178 C 121.290 52.703,119.829 52.712,118.765 52.200 C 114.917 50.350,113.645 41.094,117.015 39.466 C 117.849 39.063,118.991 39.004,119.826 39.320 M269.138 39.320 C 273.254 40.876,275.032 50.292,271.566 52.178 C 270.602 52.703,269.141 52.712,268.077 52.200 C 264.229 50.350,262.957 41.094,266.327 39.466 C 267.161 39.063,268.303 39.004,269.138 39.320 M197.792 39.451 C 202.271 40.638,205.934 49.007,204.451 54.665 C 203.648 57.729,201.495 59.217,198.528 58.757 C 191.528 57.672,188.257 42.141,194.506 39.658 C 195.411 39.299,196.870 39.207,197.792 39.451 M333.600 40.286 C 335.585 40.608,337.115 41.855,338.241 44.066 C 339.801 47.130,340.264 52.355,339.252 55.488 C 337.750 60.143,331.829 60.035,328.672 55.296 C 327.639 53.745,327.680 54.068,327.681 47.553 L 327.682 42.080 328.273 41.683 C 330.188 40.395,331.750 39.986,333.600 40.286 M253.395 44.176 C 253.362 44.220,253.167 44.544,252.962 44.896 C 252.758 45.248,252.545 45.608,252.489 45.696 C 252.433 45.784,252.333 45.957,252.268 46.080 C 252.202 46.203,252.082 46.405,252.002 46.528 C 251.861 46.743,251.318 47.661,251.056 48.128 C 250.987 48.251,250.835 48.510,250.719 48.704 C 250.603 48.898,250.391 49.258,250.248 49.504 C 250.105 49.750,249.964 49.981,249.935 50.016 C 249.906 50.051,249.794 50.238,249.687 50.432 C 249.472 50.821,249.119 51.427,248.794 51.968 C 248.677 52.162,248.492 52.478,248.383 52.672 C 248.274 52.866,248.078 53.203,247.948 53.422 C 247.633 53.953,247.243 54.629,247.071 54.944 C 246.994 55.085,246.794 55.430,246.627 55.712 C 246.460 55.994,246.282 56.303,246.232 56.400 L 246.141 56.576 250.331 56.576 L 254.522 56.576 254.646 56.295 C 256.115 52.974,255.865 48.277,254.047 45.024 C 253.929 44.813,253.767 44.518,253.687 44.368 C 253.533 44.078,253.491 44.050,253.395 44.176 M229.949 46.320 C 228.385 49.796,228.756 54.550,230.870 58.126 C 231.275 58.811,231.215 58.819,231.645 58.032 C 231.842 57.671,232.231 56.973,232.509 56.480 C 232.788 55.987,233.192 55.267,233.408 54.880 C 233.623 54.493,234.012 53.802,234.271 53.344 C 234.530 52.886,234.922 52.181,235.141 51.776 C 235.360 51.371,235.559 51.026,235.582 51.008 C 235.606 50.990,235.712 50.818,235.818 50.624 C 235.925 50.430,236.225 49.903,236.486 49.452 C 236.747 49.002,237.028 48.512,237.112 48.364 C 237.317 48.002,237.902 46.997,238.068 46.720 C 238.142 46.597,238.262 46.388,238.335 46.256 L 238.467 46.016 234.276 46.016 L 230.086 46.016 229.949 46.320 M313.775 47.568 C 313.650 52.203,311.002 56.395,308.008 56.696 C 305.132 56.985,303.188 54.837,303.778 52.020 C 304.135 50.316,305.869 48.784,308.448 47.893 C 309.036 47.690,313.587 46.351,313.720 46.342 C 313.794 46.337,313.803 46.546,313.775 47.568 M235.608 52.364 C 235.499 52.551,235.349 52.805,235.275 52.928 C 235.201 53.051,235.053 53.310,234.945 53.504 C 234.654 54.029,234.301 54.658,234.041 55.114 C 233.914 55.337,233.640 55.822,233.432 56.192 C 233.225 56.562,233.009 56.936,232.954 57.024 C 232.846 57.195,232.242 58.273,231.891 58.922 L 231.678 59.316 231.995 59.712 C 233.647 61.770,235.916 63.271,238.612 64.088 C 239.741 64.431,241.792 64.683,242.730 64.595 C 243.170 64.554,243.197 64.523,243.016 64.266 C 242.950 64.172,242.841 63.995,242.773 63.872 C 242.672 63.687,242.217 62.914,241.981 62.528 C 241.529 61.786,241.088 61.040,241.088 61.016 C 241.088 60.999,240.987 60.828,240.864 60.636 C 240.741 60.443,240.640 60.272,240.640 60.256 C 240.640 60.223,240.099 59.313,239.934 59.070 C 239.874 58.981,239.761 58.782,239.683 58.629 C 239.604 58.476,239.513 58.318,239.479 58.279 C 239.445 58.240,239.277 57.963,239.106 57.664 C 238.935 57.365,238.734 57.019,238.661 56.896 C 238.587 56.773,238.337 56.341,238.104 55.936 C 237.872 55.531,237.622 55.099,237.550 54.976 C 237.478 54.853,237.304 54.550,237.164 54.304 C 237.024 54.058,236.800 53.669,236.667 53.440 C 236.533 53.211,236.338 52.866,236.235 52.672 C 236.131 52.478,235.992 52.253,235.927 52.172 L 235.807 52.025 235.608 52.364 M239.811 57.520 C 239.889 57.652,240.162 58.120,240.417 58.560 C 240.672 59.000,240.969 59.504,241.078 59.680 C 241.187 59.856,241.346 60.130,241.432 60.288 C 241.517 60.446,241.705 60.763,241.850 60.992 C 241.994 61.221,242.132 61.451,242.156 61.504 C 242.179 61.557,242.318 61.802,242.463 62.048 C 242.609 62.294,242.845 62.698,242.989 62.944 C 243.453 63.740,243.742 64.221,243.844 64.365 C 243.944 64.506,243.946 64.506,244.580 64.412 C 247.948 63.914,251.468 61.613,253.385 58.656 C 253.868 57.911,253.915 57.834,254.055 57.552 L 254.190 57.280 246.929 57.280 L 239.667 57.280 239.811 57.520 M116.768 59.802 C 117.296 59.856,119.240 59.973,121.088 60.062 C 125.808 60.288,126.627 60.378,127.436 60.762 C 128.443 61.240,128.817 62.245,128.441 63.465 C 126.908 68.443,115.345 70.103,113.225 65.650 C 112.383 63.883,112.908 61.579,114.464 60.211 C 115.104 59.649,115.137 59.631,115.488 59.669 C 115.664 59.688,116.240 59.747,116.768 59.802 M266.080 59.802 C 266.608 59.856,268.552 59.973,270.400 60.062 C 275.120 60.288,275.939 60.378,276.748 60.762 C 277.755 61.240,278.129 62.245,277.753 63.465 C 276.220 68.443,264.657 70.103,262.537 65.650 C 261.695 63.883,262.220 61.579,263.776 60.211 C 264.416 59.649,264.449 59.631,264.800 59.669 C 264.976 59.688,265.552 59.747,266.080 59.802 " stroke="none" fill="#000000" fill-rule="evenodd"></path></g></svg>