<svg id="svg" version="1.1" xmlns="http://www.w3.org/2000/svg" xmlns:xlink="http://www.w3.org/1999/xlink" width="400" height="112.67004534542545" viewBox="0, 0, 400,112.67004534542545"><g id="svgg"><path id="path0" d="M197.542 6.622 C 194.034 8.187,193.891 8.319,194.945 9.014 C 195.869 9.622,196.168 10.144,196.352 11.472 C 196.649 13.616,196.458 42.058,196.139 43.135 C 195.874 44.030,195.194 44.916,194.637 45.093 C 194.470 45.146,194.333 45.334,194.333 45.511 C 194.333 45.822,194.499 45.833,199.000 45.833 C 204.087 45.833,204.443 45.754,203.133 44.917 C 201.561 43.912,201.628 44.787,201.515 23.667 C 201.418 5.407,201.414 5.250,201.083 5.220 C 200.900 5.203,199.306 5.834,197.542 6.622 M140.035 11.295 C 138.690 11.914,137.688 12.469,137.734 12.570 C 138.988 15.362,139.078 14.844,136.027 22.417 C 134.660 25.808,132.449 31.296,131.113 34.612 C 127.811 42.810,127.320 43.700,125.527 44.750 C 123.928 45.686,124.219 45.833,127.667 45.833 C 130.491 45.833,130.667 45.815,130.667 45.520 C 130.667 45.331,130.473 45.127,130.175 45.003 C 128.527 44.321,128.706 42.959,131.274 36.625 L 132.879 32.667 139.587 32.667 L 146.295 32.667 147.671 35.958 C 151.106 44.181,151.090 44.127,150.354 44.814 C 149.278 45.819,149.334 45.833,154.417 45.833 C 159.542 45.833,159.796 45.763,158.339 44.754 C 156.574 43.531,156.330 43.031,149.577 26.833 C 148.908 25.229,147.413 21.667,146.255 18.917 C 145.096 16.167,143.803 13.073,143.380 12.042 C 142.958 11.010,142.568 10.174,142.514 10.183 C 142.461 10.192,141.345 10.693,140.035 11.295 M162.142 12.146 C 158.504 14.453,161.596 19.998,165.449 18.078 C 167.467 17.072,167.956 14.433,166.443 12.711 C 165.406 11.530,163.507 11.281,162.142 12.146 M209.583 11.891 C 206.268 13.411,207.390 18.515,211.036 18.496 C 214.316 18.480,215.600 14.029,212.867 12.156 C 212.159 11.671,210.377 11.527,209.583 11.891 M270.724 16.349 C 268.477 16.725,266.159 18.123,264.550 20.075 L 264.030 20.706 262.617 20.495 C 257.933 19.799,253.755 21.610,251.378 25.368 C 248.927 29.244,250.231 34.886,254.046 36.913 C 254.812 37.320,254.812 37.332,254.020 37.784 C 250.095 40.025,249.651 44.138,253.170 45.652 C 254.189 46.091,254.216 45.982,252.875 46.841 C 244.703 52.073,247.267 60.282,256.917 59.782 C 266.049 59.309,275.318 51.358,273.605 45.467 C 272.854 42.883,271.367 42.457,260.917 41.825 C 256.272 41.544,254.769 41.171,254.253 40.172 C 253.895 39.481,253.937 39.101,254.435 38.509 C 255.150 37.658,255.336 37.621,256.869 38.023 C 260.544 38.987,264.080 38.197,267.048 35.748 C 269.447 33.770,270.409 31.793,270.414 28.833 C 270.419 25.104,268.915 22.761,265.602 21.341 L 264.809 21.002 265.138 20.542 C 265.319 20.290,265.660 19.904,265.895 19.684 L 266.323 19.285 268.370 19.903 C 272.277 21.083,273.639 20.848,274.676 18.814 C 275.441 17.316,275.031 16.645,273.167 16.344 C 271.956 16.149,271.924 16.149,270.724 16.349 M142.751 24.222 C 144.462 28.332,145.829 31.726,145.790 31.766 C 145.750 31.805,142.909 31.818,139.475 31.794 L 133.232 31.750 136.311 24.120 C 138.004 19.923,139.446 16.548,139.515 16.620 C 139.584 16.691,141.041 20.112,142.751 24.222 M162.963 21.647 C 159.261 23.264,159.105 23.417,160.329 24.227 C 161.613 25.077,161.577 24.828,161.634 33.229 C 161.700 42.845,161.549 44.089,160.220 44.873 C 158.777 45.724,159.235 45.833,164.250 45.833 C 169.280 45.833,169.725 45.726,168.260 44.862 C 166.885 44.050,166.833 43.553,166.833 31.162 C 166.833 21.423,166.814 20.701,166.542 20.465 C 166.276 20.234,165.957 20.340,162.963 21.647 M222.083 21.672 C 218.406 23.293,218.228 23.455,219.318 24.197 C 220.806 25.209,220.887 25.807,220.789 35.083 C 220.700 43.593,220.516 44.602,218.971 45.093 C 218.803 45.146,218.667 45.334,218.667 45.511 C 218.667 45.822,218.832 45.833,223.333 45.833 C 228.538 45.833,228.472 45.852,227.235 44.759 C 225.973 43.645,225.963 43.563,225.876 33.997 L 225.801 25.744 227.109 24.807 C 231.720 21.506,235.797 21.510,237.783 24.818 C 238.756 26.439,238.834 27.193,238.831 34.950 C 238.828 43.371,238.702 44.209,237.332 44.917 C 237.034 45.072,236.833 45.307,236.833 45.504 C 236.833 45.824,236.964 45.833,241.417 45.833 C 246.446 45.833,246.868 45.731,245.448 44.853 C 244.176 44.067,244.129 43.727,244.004 34.333 C 243.882 25.112,243.835 24.735,242.613 23.133 C 239.450 18.986,232.754 19.495,226.519 24.357 C 225.873 24.861,225.833 24.761,225.833 22.604 C 225.833 19.852,226.076 19.913,222.083 21.672 M178.918 20.604 C 174.952 21.319,172.487 23.912,172.361 27.500 C 172.224 31.401,173.816 32.918,180.395 35.161 C 186.913 37.384,188.544 38.971,187.609 42.186 C 185.890 48.101,176.933 45.843,173.026 38.510 C 171.861 36.324,171.769 36.540,172.101 40.677 C 172.397 44.353,172.241 44.045,174.211 44.846 C 183.122 48.472,191.145 45.221,191.164 37.976 C 191.173 34.430,189.373 32.749,183.250 30.587 C 176.433 28.180,174.583 26.344,176.008 23.399 C 178.038 19.207,185.691 20.801,188.730 26.050 C 189.843 27.971,190.035 27.725,189.910 24.542 C 189.782 21.295,189.896 21.579,188.550 21.173 C 185.865 20.365,181.629 20.114,178.918 20.604 M209.833 21.733 C 206.494 23.226,206.124 23.542,207.115 24.058 C 208.682 24.873,208.698 24.985,208.636 34.667 C 208.576 44.007,208.567 44.079,207.259 44.850 C 205.773 45.727,206.206 45.833,211.250 45.833 C 216.281 45.833,216.702 45.731,215.279 44.851 C 214.743 44.520,214.494 44.142,214.115 43.083 C 213.997 42.756,213.903 38.752,213.843 31.500 L 213.750 20.417 213.333 20.386 C 213.104 20.368,211.529 20.975,209.833 21.733 M261.148 21.578 C 266.025 24.077,267.631 35.126,263.414 37.168 C 259.153 39.231,254.933 34.344,254.921 27.333 C 254.912 22.129,257.519 19.719,261.148 21.578 M260.167 46.672 C 270.500 47.206,271.135 47.374,271.297 49.606 C 271.788 56.395,255.225 59.797,252.501 53.466 C 251.599 51.370,252.093 49.061,253.817 47.311 L 254.917 46.195 255.833 46.345 C 256.337 46.428,258.287 46.575,260.167 46.672 M83.208 51.956 C 79.623 53.551,79.554 53.622,80.760 54.472 C 82.081 55.403,82.000 54.265,82.000 71.820 C 82.000 82.580,81.943 87.751,81.817 88.338 C 81.625 89.232,80.905 90.235,80.323 90.420 C 80.145 90.476,80.000 90.667,80.000 90.845 C 80.000 91.155,80.164 91.167,84.583 91.167 C 89.011 91.167,89.167 91.156,89.167 90.843 C 89.167 90.659,88.949 90.390,88.663 90.221 C 87.357 89.450,87.184 88.047,87.174 78.131 L 87.167 71.180 87.542 70.827 C 91.786 66.839,97.485 66.709,99.321 70.559 C 100.131 72.257,100.196 73.091,100.125 80.925 C 100.050 89.151,99.939 89.818,98.561 90.342 C 98.326 90.431,98.167 90.628,98.167 90.829 C 98.167 91.160,98.259 91.167,102.750 91.167 C 107.202 91.167,107.333 91.157,107.333 90.838 C 107.333 90.641,107.133 90.405,106.835 90.251 C 105.510 89.566,105.464 89.241,105.336 79.750 C 105.226 71.678,105.211 71.383,104.847 70.342 C 102.758 64.377,95.045 64.082,87.853 69.690 C 87.634 69.861,87.391 70.000,87.312 70.000 C 87.234 70.000,87.150 65.631,87.126 60.292 C 87.084 50.719,87.079 50.583,86.750 50.556 C 86.567 50.541,84.973 51.171,83.208 51.956 M298.417 51.916 C 294.810 53.509,294.566 53.748,295.827 54.462 C 297.171 55.223,297.078 54.023,297.130 71.250 C 297.185 89.262,297.179 89.345,295.740 90.195 C 294.275 91.059,294.720 91.167,299.750 91.167 C 304.780 91.167,305.225 91.059,303.760 90.195 C 302.442 89.417,302.336 88.576,302.335 78.880 L 302.333 71.010 303.625 70.094 C 307.596 67.278,311.111 66.917,313.369 69.093 C 315.047 70.710,315.320 72.232,315.328 80.004 C 315.335 87.988,315.117 89.465,313.818 90.233 C 313.547 90.392,313.333 90.662,313.333 90.843 C 313.333 91.156,313.489 91.167,317.917 91.167 C 322.389 91.167,322.500 91.159,322.500 90.833 C 322.500 90.650,322.431 90.500,322.346 90.500 C 322.032 90.500,321.145 89.607,320.879 89.022 C 320.641 88.497,320.589 87.319,320.490 80.167 C 320.354 70.280,320.224 69.515,318.370 67.713 C 315.030 64.467,309.460 65.039,303.622 69.227 L 302.333 70.152 302.333 60.526 C 302.333 50.813,302.314 50.481,301.758 50.509 C 301.662 50.513,300.158 51.147,298.417 51.916 M53.444 55.944 C 53.183 56.206,53.370 56.669,53.849 56.949 C 55.250 57.767,55.330 58.665,55.331 73.583 C 55.333 88.509,55.253 89.385,53.818 90.233 C 53.547 90.392,53.333 90.662,53.333 90.843 C 53.333 91.156,53.490 91.167,58.000 91.167 C 62.575 91.167,62.667 91.160,62.667 90.829 C 62.667 90.633,62.510 90.432,62.292 90.348 C 60.918 89.823,60.762 89.083,60.698 82.792 L 60.642 77.333 62.946 77.332 C 70.125 77.329,74.745 75.085,76.837 70.583 C 79.809 64.190,76.779 58.245,69.667 56.515 C 67.411 55.966,53.898 55.491,53.444 55.944 M64.917 57.018 C 69.378 57.794,72.215 61.753,72.190 67.167 C 72.160 73.395,68.989 76.488,62.625 76.497 L 60.667 76.500 60.667 66.676 L 60.667 56.852 61.375 56.801 C 62.366 56.730,63.741 56.814,64.917 57.018 M143.798 62.597 C 140.742 65.282,140.074 65.947,140.031 66.347 L 139.979 66.833 141.564 66.833 L 143.150 66.833 143.204 76.958 C 143.256 86.906,143.264 87.103,143.627 88.183 C 145.294 93.133,151.118 92.826,155.830 87.539 C 157.012 86.213,156.666 85.676,155.428 86.914 C 153.560 88.782,150.806 89.172,149.401 87.768 C 148.355 86.722,148.333 86.486,148.333 76.136 L 148.333 66.833 152.147 66.833 L 155.961 66.833 156.041 66.417 L 156.120 66.000 152.227 66.000 L 148.333 66.000 148.333 62.667 L 148.333 59.333 147.923 59.333 C 147.628 59.333,146.473 60.248,143.798 62.597 M210.724 61.678 C 208.574 62.049,205.984 63.555,204.674 65.194 C 203.970 66.076,203.906 66.116,203.424 65.971 C 201.353 65.349,197.791 65.709,195.708 66.753 C 189.085 70.070,188.010 78.692,193.792 82.113 C 194.679 82.637,194.676 82.663,193.676 83.311 C 189.872 85.776,189.646 89.716,193.229 91.084 L 193.996 91.377 192.790 92.201 C 182.591 99.170,189.546 108.276,201.916 104.150 C 208.993 101.789,214.281 96.045,213.651 91.402 C 213.262 88.536,211.354 87.778,203.417 87.333 C 195.559 86.893,194.000 86.469,194.000 84.771 C 194.000 84.043,195.026 82.927,195.580 83.052 C 195.765 83.094,196.404 83.263,197.000 83.427 C 203.015 85.088,209.834 80.779,210.433 74.938 C 210.788 71.469,209.113 68.450,206.013 66.971 C 204.657 66.323,204.690 66.393,205.347 65.565 C 206.119 64.592,206.148 64.589,208.294 65.251 C 211.818 66.339,213.246 66.181,214.372 64.579 C 215.851 62.476,214.112 61.093,210.724 61.678 M218.796 66.981 C 215.704 68.331,215.508 68.443,215.504 68.864 C 215.501 69.161,215.607 69.345,215.821 69.413 C 217.341 69.895,217.500 70.820,217.500 79.157 C 217.500 88.039,217.309 89.463,216.016 90.218 C 215.719 90.391,215.500 90.657,215.500 90.843 C 215.500 91.156,215.656 91.167,220.083 91.167 C 224.556 91.167,224.667 91.159,224.667 90.833 C 224.667 90.650,224.597 90.500,224.513 90.500 C 224.200 90.500,223.313 89.608,223.041 89.022 C 222.795 88.491,222.753 87.528,222.703 81.152 C 222.633 72.390,222.620 72.454,225.060 69.590 L 225.622 68.930 227.792 69.546 C 232.605 70.914,234.339 70.655,235.356 68.418 C 236.258 66.432,235.060 65.524,231.782 65.709 C 228.291 65.905,224.878 67.995,223.210 70.958 L 222.671 71.917 222.669 68.984 C 222.666 65.003,222.967 65.159,218.796 66.981 M121.500 65.782 C 114.544 66.951,110.079 72.292,110.101 79.417 C 110.147 94.648,133.193 96.175,136.513 81.167 C 138.520 72.091,130.833 64.213,121.500 65.782 M169.772 65.915 C 157.187 68.529,152.675 84.048,161.986 92.696 C 172.062 102.056,188.273 94.984,188.223 81.250 C 188.188 71.470,179.158 63.965,169.772 65.915 M248.833 65.919 C 246.118 66.474,243.782 67.813,241.387 70.185 C 240.288 71.273,240.188 71.426,240.415 71.654 C 240.643 71.881,240.745 71.829,241.395 71.150 C 246.726 65.588,255.137 66.900,255.232 73.309 L 255.250 74.557 251.708 75.592 C 240.678 78.814,238.150 80.707,238.363 85.583 C 238.671 92.631,247.883 93.961,252.403 87.609 C 253.315 86.327,254.347 84.275,254.848 82.750 C 255.059 82.108,255.292 81.512,255.366 81.425 C 255.440 81.338,255.500 83.275,255.500 85.729 L 255.500 90.192 255.987 90.679 L 256.474 91.167 259.487 91.167 C 262.401 91.167,262.500 91.156,262.500 90.829 C 262.500 90.633,262.343 90.432,262.125 90.348 C 260.681 89.796,260.606 89.344,260.485 80.500 C 260.369 72.007,260.330 71.641,259.319 69.639 C 257.724 66.479,253.474 64.971,248.833 65.919 M268.333 67.067 C 264.966 68.568,264.615 68.873,265.648 69.407 C 265.924 69.550,266.360 69.942,266.616 70.279 L 267.083 70.891 267.083 86.404 C 267.083 103.958,267.158 102.963,265.771 103.820 C 264.292 104.734,264.682 104.833,269.750 104.833 L 274.333 104.833 274.333 104.417 C 274.333 104.184,274.237 104.000,274.115 104.000 C 273.868 104.000,273.128 103.256,272.872 102.750 C 272.487 101.991,272.333 99.782,272.333 95.007 L 272.333 89.994 273.129 90.398 C 279.387 93.569,287.393 90.812,290.496 84.417 C 295.245 74.626,288.866 63.970,279.423 65.921 C 277.561 66.305,273.156 68.343,272.743 69.011 C 272.470 69.453,272.340 69.002,272.297 67.458 C 272.237 65.271,272.341 65.282,268.333 67.067 M323.218 66.274 C 323.146 66.460,323.268 66.657,323.598 66.887 C 325.305 68.079,326.086 69.372,328.550 75.083 C 329.420 77.100,331.010 80.775,332.082 83.250 C 333.155 85.725,334.392 88.593,334.832 89.624 L 335.631 91.498 334.960 92.791 C 334.232 94.195,332.842 96.290,332.333 96.751 C 332.031 97.024,331.872 97.016,329.198 96.603 C 324.188 95.827,322.388 96.361,321.644 98.843 C 320.890 101.360,327.119 101.717,330.554 99.354 C 333.687 97.198,334.993 94.907,340.826 81.333 C 346.094 69.075,346.709 67.955,348.672 67.051 C 349.145 66.833,349.326 66.647,349.329 66.375 C 349.333 66.000,349.332 66.000,346.417 66.000 C 343.634 66.000,343.500 66.015,343.500 66.326 C 343.500 66.531,343.706 66.749,344.060 66.917 C 345.096 67.408,345.267 68.570,344.596 70.554 C 344.177 71.792,338.729 84.492,338.526 84.702 C 338.414 84.819,332.350 71.165,331.533 68.955 C 331.075 67.715,331.171 67.055,331.837 66.881 C 332.049 66.825,332.167 66.653,332.167 66.397 L 332.167 66.000 327.745 66.000 C 323.796 66.000,323.312 66.029,323.218 66.274 M176.417 66.826 C 186.210 69.383,190.720 80.895,185.244 89.361 C 178.860 99.229,164.248 98.273,159.175 87.655 C 153.770 76.341,164.271 63.655,176.417 66.826 M201.000 66.877 C 205.859 69.172,207.591 80.479,203.394 82.511 C 199.127 84.577,194.794 79.589,194.769 72.583 C 194.752 67.650,197.435 65.193,201.000 66.877 M124.225 67.260 C 131.840 70.988,134.460 87.338,127.884 90.086 C 121.411 92.791,114.390 84.205,115.065 74.410 C 115.486 68.288,119.665 65.027,124.225 67.260 M172.064 67.265 C 172.278 67.829,179.542 80.500,179.648 80.493 C 179.994 80.471,184.142 72.931,183.977 72.624 C 183.303 71.364,180.272 69.035,178.188 68.176 C 175.811 67.195,171.813 66.601,172.064 67.265 M169.167 67.491 C 165.927 68.372,163.315 70.085,161.441 72.557 C 160.632 73.625,160.000 74.655,160.000 74.908 C 160.000 74.959,163.487 75.000,167.750 75.000 C 172.012 75.000,175.500 74.958,175.500 74.906 C 175.500 74.854,174.521 73.091,173.323 70.989 C 170.863 66.668,171.188 66.942,169.167 67.491 M280.417 68.030 C 287.646 69.841,290.031 87.252,283.452 90.185 C 280.339 91.573,275.971 89.836,273.604 86.270 C 272.368 84.408,272.333 84.147,272.335 76.714 L 272.336 70.083 273.293 69.468 C 275.877 67.805,277.894 67.398,280.417 68.030 M184.124 74.375 C 183.902 74.765,182.836 76.583,181.754 78.417 C 179.122 82.878,176.833 86.837,176.833 86.927 C 176.833 86.967,178.855 87.000,181.326 87.000 L 185.819 87.000 186.237 85.677 C 187.444 81.857,187.004 77.556,185.063 74.209 C 184.662 73.516,184.609 73.526,184.124 74.375 M255.496 75.625 C 255.402 81.989,252.071 87.652,248.240 87.959 C 241.862 88.471,240.970 81.013,247.050 78.015 C 249.806 76.657,255.504 75.044,255.496 75.625 M159.192 76.708 C 158.385 79.218,158.253 82.204,158.840 84.667 C 159.161 86.012,160.537 89.174,160.795 89.160 C 160.862 89.157,161.779 87.607,162.833 85.717 C 163.887 83.827,165.594 80.818,166.625 79.031 C 167.656 77.244,168.500 75.755,168.500 75.724 C 168.500 75.692,166.481 75.667,164.014 75.667 L 159.527 75.667 159.192 76.708 M165.037 83.275 C 162.131 88.276,161.322 89.835,161.481 90.131 C 162.878 92.741,168.408 95.500,172.243 95.500 C 173.763 95.500,173.768 95.748,172.190 93.108 C 171.469 91.903,169.772 89.004,168.418 86.667 C 167.064 84.329,165.898 82.353,165.828 82.275 C 165.758 82.197,165.402 82.647,165.037 83.275 M170.280 88.458 C 171.298 90.208,174.365 95.419,174.396 95.450 C 174.677 95.740,178.581 94.390,180.117 93.472 C 181.900 92.406,185.333 88.686,185.333 87.819 C 185.333 87.729,182.164 87.667,177.576 87.667 L 169.819 87.667 170.280 88.458 M202.667 92.168 C 210.546 92.617,211.536 92.999,211.296 95.492 C 210.758 101.101,198.156 104.531,193.582 100.314 C 191.355 98.262,191.537 94.468,193.964 92.324 L 194.750 91.629 195.917 91.740 C 196.558 91.800,199.596 91.993,202.667 92.168 " stroke="none" fill="#070707" fill-rule="evenodd"></path><path id="path1" d="M0.000 56.333 L 0.000 112.667 200.000 112.667 L 400.000 112.667 400.000 56.333 L 400.000 0.000 200.000 0.000 L 0.000 0.000 0.000 56.333 M201.515 23.667 C 201.628 44.787,201.561 43.912,203.133 44.917 C 204.443 45.754,204.087 45.833,199.000 45.833 C 194.499 45.833,194.333 45.822,194.333 45.511 C 194.333 45.334,194.470 45.146,194.637 45.093 C 195.194 44.916,195.874 44.030,196.139 43.135 C 196.458 42.058,196.649 13.616,196.352 11.472 C 196.168 10.144,195.869 9.622,194.945 9.014 C 193.891 8.319,194.034 8.187,197.542 6.622 C 199.306 5.834,200.900 5.203,201.083 5.220 C 201.414 5.250,201.418 5.407,201.515 23.667 M143.380 12.042 C 143.803 13.073,145.096 16.167,146.255 18.917 C 147.413 21.667,148.908 25.229,149.577 26.833 C 156.330 43.031,156.574 43.531,158.339 44.754 C 159.796 45.763,159.542 45.833,154.417 45.833 C 149.334 45.833,149.278 45.819,150.354 44.814 C 151.090 44.127,151.106 44.181,147.671 35.958 L 146.295 32.667 139.587 32.667 L 132.879 32.667 131.274 36.625 C 128.706 42.959,128.527 44.321,130.175 45.003 C 130.473 45.127,130.667 45.331,130.667 45.520 C 130.667 45.815,130.491 45.833,127.667 45.833 C 124.219 45.833,123.928 45.686,125.527 44.750 C 127.320 43.700,127.811 42.810,131.113 34.612 C 132.449 31.296,134.660 25.808,136.027 22.417 C 139.078 14.844,138.988 15.362,137.734 12.570 C 137.672 12.433,142.004 10.270,142.514 10.183 C 142.568 10.174,142.958 11.010,143.380 12.042 M165.383 11.892 C 167.907 12.946,167.948 16.832,165.449 18.078 C 161.596 19.998,158.504 14.453,162.142 12.146 C 163.004 11.600,164.418 11.489,165.383 11.892 M212.867 12.156 C 215.600 14.029,214.316 18.480,211.036 18.496 C 207.390 18.515,206.268 13.411,209.583 11.891 C 210.377 11.527,212.159 11.671,212.867 12.156 M273.167 16.344 C 275.031 16.645,275.441 17.316,274.676 18.814 C 273.639 20.848,272.277 21.083,268.370 19.903 L 266.323 19.285 265.895 19.684 C 265.660 19.904,265.319 20.290,265.138 20.542 L 264.809 21.002 265.602 21.341 C 271.510 23.874,272.270 31.441,267.048 35.748 C 264.080 38.197,260.544 38.987,256.869 38.023 C 255.336 37.621,255.150 37.658,254.435 38.509 C 253.937 39.101,253.895 39.481,254.253 40.172 C 254.769 41.171,256.272 41.544,260.917 41.825 C 271.367 42.457,272.854 42.883,273.605 45.467 C 275.318 51.358,266.049 59.309,256.917 59.782 C 247.267 60.282,244.703 52.073,252.875 46.841 C 254.216 45.982,254.189 46.091,253.170 45.652 C 249.651 44.138,250.095 40.025,254.020 37.784 C 254.812 37.332,254.812 37.320,254.046 36.913 C 250.231 34.886,248.927 29.244,251.378 25.368 C 253.755 21.610,257.933 19.799,262.617 20.495 L 264.030 20.706 264.550 20.075 C 266.159 18.123,268.477 16.725,270.724 16.349 C 271.924 16.149,271.956 16.149,273.167 16.344 M136.311 24.120 L 133.232 31.750 139.475 31.794 C 142.909 31.818,145.750 31.805,145.790 31.766 C 145.870 31.686,139.713 16.825,139.515 16.620 C 139.446 16.548,138.004 19.923,136.311 24.120 M166.833 31.162 C 166.833 43.553,166.885 44.050,168.260 44.862 C 169.725 45.726,169.280 45.833,164.250 45.833 C 159.235 45.833,158.777 45.724,160.220 44.873 C 161.549 44.089,161.700 42.845,161.634 33.229 C 161.577 24.828,161.613 25.077,160.329 24.227 C 159.105 23.417,159.261 23.264,162.963 21.647 C 165.957 20.340,166.276 20.234,166.542 20.465 C 166.814 20.701,166.833 21.423,166.833 31.162 M225.833 22.604 C 225.833 24.761,225.873 24.861,226.519 24.357 C 232.754 19.495,239.450 18.986,242.613 23.133 C 243.835 24.735,243.882 25.112,244.004 34.333 C 244.129 43.727,244.176 44.067,245.448 44.853 C 246.868 45.731,246.446 45.833,241.417 45.833 C 236.964 45.833,236.833 45.824,236.833 45.504 C 236.833 45.307,237.034 45.072,237.332 44.917 C 238.702 44.209,238.828 43.371,238.831 34.950 C 238.834 27.193,238.756 26.439,237.783 24.818 C 235.797 21.510,231.720 21.506,227.109 24.807 L 225.801 25.744 225.876 33.997 C 225.963 43.563,225.973 43.645,227.235 44.759 C 228.472 45.852,228.538 45.833,223.333 45.833 C 218.832 45.833,218.667 45.822,218.667 45.511 C 218.667 45.334,218.803 45.146,218.971 45.093 C 220.516 44.602,220.700 43.593,220.789 35.083 C 220.887 25.807,220.806 25.209,219.318 24.197 C 218.228 23.455,218.406 23.293,222.083 21.672 C 226.076 19.913,225.833 19.852,225.833 22.604 M185.750 20.584 C 187.699 20.874,189.656 21.429,189.744 21.716 C 189.778 21.826,189.853 23.098,189.910 24.542 C 190.035 27.725,189.843 27.971,188.730 26.050 C 185.691 20.801,178.038 19.207,176.008 23.399 C 174.583 26.344,176.433 28.180,183.250 30.587 C 189.373 32.749,191.173 34.430,191.164 37.976 C 191.145 45.221,183.122 48.472,174.211 44.846 C 172.241 44.045,172.397 44.353,172.101 40.677 C 171.769 36.540,171.861 36.324,173.026 38.510 C 176.933 45.843,185.890 48.101,187.609 42.186 C 188.544 38.971,186.913 37.384,180.395 35.161 C 173.816 32.918,172.224 31.401,172.361 27.500 C 172.550 22.107,177.794 19.398,185.750 20.584 M213.843 31.500 C 213.903 38.752,213.997 42.756,214.115 43.083 C 214.494 44.142,214.743 44.520,215.279 44.851 C 216.702 45.731,216.281 45.833,211.250 45.833 C 206.206 45.833,205.773 45.727,207.259 44.850 C 208.567 44.079,208.576 44.007,208.636 34.667 C 208.698 24.985,208.682 24.873,207.115 24.058 C 206.124 23.542,206.494 23.226,209.833 21.733 C 211.529 20.975,213.104 20.368,213.333 20.386 L 213.750 20.417 213.843 31.500 M258.120 21.174 C 253.075 22.425,254.094 34.647,259.454 37.167 C 262.956 38.813,265.833 36.367,265.833 31.743 C 265.833 25.401,262.039 20.202,258.120 21.174 M253.817 47.311 C 252.093 49.061,251.599 51.370,252.501 53.466 C 255.225 59.797,271.788 56.395,271.297 49.606 C 271.135 47.374,270.500 47.206,260.167 46.672 C 258.287 46.575,256.337 46.428,255.833 46.345 L 254.917 46.195 253.817 47.311 M87.126 60.292 C 87.150 65.631,87.234 70.000,87.312 70.000 C 87.391 70.000,87.634 69.861,87.853 69.690 C 95.045 64.082,102.758 64.377,104.847 70.342 C 105.211 71.383,105.226 71.678,105.336 79.750 C 105.464 89.241,105.510 89.566,106.835 90.251 C 107.133 90.405,107.333 90.641,107.333 90.838 C 107.333 91.157,107.202 91.167,102.750 91.167 C 98.259 91.167,98.167 91.160,98.167 90.829 C 98.167 90.628,98.326 90.431,98.561 90.342 C 99.939 89.818,100.050 89.151,100.125 80.925 C 100.196 73.091,100.131 72.257,99.321 70.559 C 97.485 66.709,91.786 66.839,87.542 70.827 L 87.167 71.180 87.174 78.131 C 87.184 88.047,87.357 89.450,88.663 90.221 C 88.949 90.390,89.167 90.659,89.167 90.843 C 89.167 91.156,89.011 91.167,84.583 91.167 C 80.164 91.167,80.000 91.155,80.000 90.845 C 80.000 90.667,80.145 90.476,80.323 90.420 C 80.905 90.235,81.625 89.232,81.817 88.338 C 81.943 87.751,82.000 82.580,82.000 71.820 C 82.000 54.265,82.081 55.403,80.760 54.472 C 80.342 54.177,80.000 53.812,80.000 53.660 C 80.000 53.345,86.171 50.508,86.750 50.556 C 87.079 50.583,87.084 50.719,87.126 60.292 M302.133 50.700 C 302.284 50.851,302.333 53.261,302.333 60.526 L 302.333 70.152 303.622 69.227 C 309.460 65.039,315.030 64.467,318.370 67.713 C 320.224 69.515,320.354 70.280,320.490 80.167 C 320.589 87.319,320.641 88.497,320.879 89.022 C 321.145 89.607,322.032 90.500,322.346 90.500 C 322.431 90.500,322.500 90.650,322.500 90.833 C 322.500 91.159,322.389 91.167,317.917 91.167 C 313.489 91.167,313.333 91.156,313.333 90.843 C 313.333 90.662,313.547 90.392,313.818 90.233 C 315.117 89.465,315.335 87.988,315.328 80.004 C 315.320 72.232,315.047 70.710,313.369 69.093 C 311.111 66.917,307.596 67.278,303.625 70.094 L 302.333 71.010 302.335 78.880 C 302.336 88.576,302.442 89.417,303.760 90.195 C 305.225 91.059,304.780 91.167,299.750 91.167 C 294.720 91.167,294.275 91.059,295.740 90.195 C 297.179 89.345,297.185 89.262,297.130 71.250 C 297.078 54.023,297.171 55.223,295.827 54.462 C 294.566 53.748,294.810 53.509,298.417 51.916 C 301.843 50.403,301.838 50.404,302.133 50.700 M65.583 56.002 C 73.836 56.522,78.445 60.443,77.922 66.500 C 77.317 73.511,72.039 77.328,62.946 77.332 L 60.642 77.333 60.698 82.792 C 60.762 89.083,60.918 89.823,62.292 90.348 C 62.510 90.432,62.667 90.633,62.667 90.829 C 62.667 91.160,62.575 91.167,58.000 91.167 C 53.490 91.167,53.333 91.156,53.333 90.843 C 53.333 90.662,53.547 90.392,53.818 90.233 C 55.253 89.385,55.333 88.509,55.331 73.583 C 55.330 58.665,55.250 57.767,53.849 56.949 C 53.370 56.669,53.183 56.206,53.444 55.944 C 53.617 55.772,62.604 55.815,65.583 56.002 M61.375 56.801 L 60.667 56.852 60.667 66.676 L 60.667 76.500 62.625 76.497 C 68.989 76.488,72.160 73.395,72.190 67.167 C 72.222 60.365,68.003 56.322,61.375 56.801 M148.333 62.667 L 148.333 66.000 152.227 66.000 L 156.120 66.000 156.041 66.417 L 155.961 66.833 152.147 66.833 L 148.333 66.833 148.333 76.136 C 148.333 86.486,148.355 86.722,149.401 87.768 C 150.806 89.172,153.560 88.782,155.428 86.914 C 156.666 85.676,157.012 86.213,155.830 87.539 C 151.118 92.826,145.294 93.133,143.627 88.183 C 143.264 87.103,143.256 86.906,143.204 76.958 L 143.150 66.833 141.564 66.833 L 139.979 66.833 140.031 66.347 C 140.100 65.701,147.266 59.333,147.923 59.333 L 148.333 59.333 148.333 62.667 M213.849 61.846 C 215.129 62.173,215.329 63.217,214.372 64.579 C 213.246 66.181,211.818 66.339,208.294 65.251 C 206.148 64.589,206.119 64.592,205.347 65.565 C 204.690 66.393,204.657 66.323,206.013 66.971 C 209.113 68.450,210.788 71.469,210.433 74.938 C 209.834 80.779,203.015 85.088,197.000 83.427 C 196.404 83.263,195.765 83.094,195.580 83.052 C 195.026 82.927,194.000 84.043,194.000 84.771 C 194.000 86.469,195.559 86.893,203.417 87.333 C 210.042 87.704,212.032 88.214,213.089 89.812 C 215.409 93.318,211.506 99.564,204.917 102.892 C 191.781 109.526,181.150 100.154,192.790 92.201 L 193.996 91.377 193.229 91.084 C 189.646 89.716,189.872 85.776,193.676 83.311 C 194.676 82.663,194.679 82.637,193.792 82.113 C 188.010 78.692,189.085 70.070,195.708 66.753 C 197.791 65.709,201.353 65.349,203.424 65.971 C 203.906 66.116,203.970 66.076,204.674 65.194 C 206.840 62.483,210.750 61.056,213.849 61.846 M222.669 68.984 L 222.671 71.917 223.210 70.958 C 224.878 67.995,228.291 65.905,231.782 65.709 C 235.060 65.524,236.258 66.432,235.356 68.418 C 234.339 70.655,232.605 70.914,227.792 69.546 L 225.622 68.930 225.060 69.590 C 222.620 72.454,222.633 72.390,222.703 81.152 C 222.753 87.528,222.795 88.491,223.041 89.022 C 223.313 89.608,224.200 90.500,224.513 90.500 C 224.597 90.500,224.667 90.650,224.667 90.833 C 224.667 91.159,224.556 91.167,220.083 91.167 C 215.656 91.167,215.500 91.156,215.500 90.843 C 215.500 90.657,215.719 90.391,216.016 90.218 C 217.309 89.463,217.500 88.039,217.500 79.157 C 217.500 70.820,217.341 69.895,215.821 69.413 C 215.607 69.345,215.501 69.161,215.504 68.864 C 215.508 68.443,215.704 68.331,218.796 66.981 C 222.967 65.159,222.666 65.003,222.669 68.984 M126.088 65.903 C 140.463 68.432,140.433 88.123,126.049 91.394 C 117.631 93.309,110.126 87.672,110.101 79.417 C 110.074 70.524,117.358 64.366,126.088 65.903 M176.583 66.151 C 188.409 69.277,192.299 84.259,183.452 92.606 C 174.712 100.851,160.474 96.712,157.494 85.061 C 154.601 73.749,165.286 63.165,176.583 66.151 M254.132 65.932 C 256.606 66.443,258.327 67.672,259.319 69.639 C 260.330 71.641,260.369 72.007,260.485 80.500 C 260.606 89.344,260.681 89.796,262.125 90.348 C 262.343 90.432,262.500 90.633,262.500 90.829 C 262.500 91.156,262.401 91.167,259.487 91.167 L 256.474 91.167 255.987 90.679 L 255.500 90.192 255.500 85.729 C 255.500 83.275,255.440 81.338,255.366 81.425 C 255.292 81.512,255.059 82.108,254.848 82.750 C 252.978 88.446,249.539 91.583,245.167 91.583 C 240.987 91.583,238.530 89.417,238.363 85.583 C 238.150 80.707,240.678 78.814,251.708 75.592 L 255.250 74.557 255.232 73.309 C 255.137 66.900,246.726 65.588,241.395 71.150 C 240.745 71.829,240.643 71.881,240.415 71.654 C 239.951 71.189,243.258 68.237,245.571 67.052 C 248.090 65.761,251.283 65.344,254.132 65.932 M272.297 67.458 C 272.340 69.002,272.470 69.453,272.743 69.011 C 273.156 68.343,277.561 66.305,279.423 65.921 C 288.866 63.970,295.245 74.626,290.496 84.417 C 287.393 90.812,279.387 93.569,273.129 90.398 L 272.333 89.994 272.333 95.007 C 272.333 99.782,272.487 101.991,272.872 102.750 C 273.128 103.256,273.868 104.000,274.115 104.000 C 274.237 104.000,274.333 104.184,274.333 104.417 L 274.333 104.833 269.750 104.833 C 264.682 104.833,264.292 104.734,265.771 103.820 C 267.158 102.963,267.083 103.958,267.083 86.404 L 267.083 70.891 266.616 70.279 C 266.360 69.942,265.924 69.550,265.648 69.407 C 264.615 68.873,264.966 68.568,268.333 67.067 C 272.341 65.282,272.237 65.271,272.297 67.458 M332.167 66.397 C 332.167 66.653,332.049 66.825,331.837 66.881 C 331.171 67.055,331.075 67.715,331.533 68.955 C 332.350 71.165,338.414 84.819,338.526 84.702 C 338.729 84.492,344.177 71.792,344.596 70.554 C 345.267 68.570,345.096 67.408,344.060 66.917 C 343.706 66.749,343.500 66.531,343.500 66.326 C 343.500 66.015,343.634 66.000,346.417 66.000 C 349.332 66.000,349.333 66.000,349.329 66.375 C 349.326 66.647,349.145 66.833,348.672 67.051 C 346.709 67.955,346.094 69.075,340.826 81.333 C 334.993 94.907,333.687 97.198,330.554 99.354 C 327.119 101.717,320.890 101.360,321.644 98.843 C 322.388 96.361,324.188 95.827,329.198 96.603 C 331.872 97.016,332.031 97.024,332.333 96.751 C 332.842 96.290,334.232 94.195,334.960 92.791 L 335.631 91.498 334.832 89.624 C 334.392 88.593,333.155 85.725,332.082 83.250 C 331.010 80.775,329.420 77.100,328.550 75.083 C 326.086 69.372,325.305 68.079,323.598 66.887 C 322.463 66.094,322.903 66.000,327.745 66.000 L 332.167 66.000 332.167 66.397 M169.956 66.586 C 158.036 68.846,153.594 83.754,162.356 92.093 C 171.918 101.194,187.612 94.394,187.571 81.167 C 187.542 71.967,178.975 64.875,169.956 66.586 M198.120 66.509 C 193.029 67.758,193.901 79.807,199.273 82.435 C 202.921 84.220,205.735 81.888,205.733 77.083 C 205.731 70.717,202.013 65.554,198.120 66.509 M119.897 66.814 C 111.448 69.003,114.866 88.844,123.976 90.496 C 129.581 91.512,132.888 86.129,131.337 78.516 C 129.751 70.737,124.700 65.570,119.897 66.814 M175.986 67.441 C 179.042 68.205,182.979 70.759,183.977 72.624 C 184.142 72.931,179.994 80.471,179.648 80.493 C 179.542 80.500,172.278 67.829,172.064 67.265 C 171.917 66.876,174.124 66.975,175.986 67.441 M173.323 70.989 C 174.521 73.091,175.500 74.854,175.500 74.906 C 175.500 74.958,172.012 75.000,167.750 75.000 C 163.487 75.000,160.000 74.959,160.000 74.908 C 160.000 74.655,160.632 73.625,161.441 72.557 C 163.315 70.085,165.927 68.372,169.167 67.491 C 171.188 66.942,170.863 66.668,173.323 70.989 M277.059 67.831 C 276.063 67.980,274.650 68.594,273.293 69.468 L 272.336 70.083 272.335 76.714 C 272.333 84.147,272.368 84.408,273.604 86.270 C 276.564 90.730,282.205 92.060,285.089 88.977 C 286.597 87.364,287.198 85.263,287.202 81.583 C 287.213 72.548,283.068 66.928,277.059 67.831 M185.063 74.209 C 187.004 77.556,187.444 81.857,186.237 85.677 L 185.819 87.000 181.326 87.000 C 178.855 87.000,176.833 86.967,176.833 86.927 C 176.833 86.837,179.122 82.878,181.754 78.417 C 182.836 76.583,183.902 74.765,184.124 74.375 C 184.609 73.526,184.662 73.516,185.063 74.209 M251.833 76.267 C 245.132 78.246,242.842 80.184,243.028 83.721 C 243.176 86.549,245.210 88.203,248.240 87.959 C 252.071 87.652,255.402 81.989,255.496 75.625 C 255.502 75.210,255.287 75.247,251.833 76.267 M168.500 75.724 C 168.500 75.755,167.656 77.244,166.625 79.031 C 165.594 80.818,163.887 83.827,162.833 85.717 C 161.779 87.607,160.862 89.157,160.795 89.160 C 160.537 89.174,159.161 86.012,158.840 84.667 C 158.253 82.204,158.385 79.218,159.192 76.708 L 159.527 75.667 164.014 75.667 C 166.481 75.667,168.500 75.692,168.500 75.724 M168.418 86.667 C 169.772 89.004,171.469 91.903,172.190 93.108 C 173.768 95.748,173.763 95.500,172.243 95.500 C 168.883 95.500,165.494 94.093,162.886 91.616 C 161.081 89.901,161.084 90.239,162.846 87.121 C 165.360 82.671,165.695 82.127,165.828 82.275 C 165.898 82.353,167.064 84.329,168.418 86.667 M185.333 87.819 C 185.333 88.686,181.900 92.406,180.117 93.472 C 178.581 94.390,174.677 95.740,174.396 95.450 C 174.365 95.419,171.298 90.208,170.280 88.458 L 169.819 87.667 177.576 87.667 C 182.164 87.667,185.333 87.729,185.333 87.819 M193.964 92.324 C 191.537 94.468,191.355 98.262,193.582 100.314 C 198.156 104.531,210.758 101.101,211.296 95.492 C 211.536 92.999,210.546 92.617,202.667 92.168 C 199.596 91.993,196.558 91.800,195.917 91.740 L 194.750 91.629 193.964 92.324 " stroke="none" fill="#ffffff" fill-rule="evenodd"></path></g></svg>