<svg id="svg" xmlns="http://www.w3.org/2000/svg" xmlns:xlink="http://www.w3.org/1999/xlink" width="400" height="112.67004534542545" viewBox="0, 0, 400,112.67004534542545" version="1.1"><g id="svgg"><path id="path0" d="M197.706 6.560 L 194.452 7.992 194.425 8.344 C 194.400 8.665,194.446 8.723,194.950 9.016 C 195.744 9.476,196.077 9.943,196.270 10.871 C 196.510 12.021,196.447 41.958,196.203 42.951 C 195.964 43.919,195.548 44.553,194.927 44.896 C 194.466 45.150,194.401 45.228,194.400 45.532 L 194.399 45.879 198.986 45.879 L 203.574 45.879 203.574 45.518 C 203.574 45.221,203.520 45.135,203.262 45.029 C 202.303 44.631,201.837 43.611,201.655 41.504 C 201.590 40.754,201.549 33.515,201.548 22.876 C 201.547 6.154,201.539 5.468,201.352 5.298 C 201.082 5.054,201.306 4.976,197.706 6.560 M140.021 11.325 L 137.657 12.396 138.101 13.373 C 138.518 14.295,138.543 14.405,138.537 15.311 L 138.530 16.271 133.617 28.434 C 127.391 43.846,127.381 43.867,125.287 44.900 C 124.780 45.150,124.727 45.210,124.727 45.528 L 124.727 45.879 127.661 45.879 L 130.595 45.879 130.594 45.532 C 130.593 45.232,130.538 45.163,130.184 45.014 C 129.575 44.758,129.200 44.202,129.133 43.455 C 129.028 42.270,129.278 41.529,132.339 33.982 L 132.815 32.809 139.576 32.781 L 146.336 32.754 148.288 37.449 C 151.151 44.339,151.209 44.574,150.124 45.024 C 149.853 45.136,149.800 45.217,149.800 45.518 L 149.800 45.879 154.388 45.879 L 158.976 45.879 158.973 45.532 C 158.971 45.236,158.891 45.132,158.434 44.822 C 156.570 43.557,156.647 43.715,148.887 25.207 C 145.437 16.977,142.562 10.245,142.499 10.248 C 142.436 10.251,141.321 10.735,140.021 11.325 M162.781 11.789 C 159.292 13.121,160.062 18.264,163.777 18.439 C 166.790 18.581,168.434 15.140,166.497 12.747 C 165.730 11.800,163.951 11.342,162.781 11.789 M209.833 11.789 C 206.270 13.150,207.190 18.458,210.990 18.458 C 215.386 18.458,215.543 11.811,211.150 11.663 C 210.543 11.643,210.107 11.684,209.833 11.789 M270.617 16.368 C 268.207 16.828,265.579 18.507,264.320 20.390 L 264.062 20.775 263.430 20.629 C 261.962 20.290,259.443 20.265,258.095 20.577 C 249.683 22.521,247.156 32.924,254.121 36.934 C 254.815 37.334,254.821 37.304,253.957 37.844 C 249.937 40.358,249.584 43.959,253.192 45.655 L 254.041 46.054 252.986 46.767 C 246.546 51.124,246.141 56.988,252.130 59.160 C 260.124 62.059,273.443 54.725,273.755 47.252 C 273.919 43.316,272.350 42.530,263.223 41.982 C 258.290 41.686,256.834 41.531,255.708 41.182 C 253.866 40.610,253.474 39.130,254.882 38.057 C 255.479 37.601,255.519 37.596,256.307 37.867 C 258.669 38.680,261.643 38.600,263.891 37.664 C 272.113 34.242,272.944 24.272,265.265 21.200 L 264.806 21.016 265.140 20.551 C 265.324 20.295,265.661 19.903,265.890 19.680 L 266.305 19.274 267.935 19.767 C 271.925 20.974,272.914 20.959,274.100 19.672 C 275.016 18.679,275.311 17.458,274.763 16.933 C 274.157 16.352,272.139 16.077,270.617 16.368 M142.720 24.140 L 145.936 31.848 142.747 31.877 C 140.992 31.892,138.123 31.892,136.370 31.877 L 133.183 31.848 136.290 24.142 C 137.999 19.904,139.421 16.435,139.451 16.434 C 139.480 16.433,140.951 19.900,142.720 24.140 M162.870 21.707 L 159.669 23.124 159.637 23.493 C 159.608 23.831,159.641 23.878,160.027 24.053 C 160.591 24.307,161.165 24.913,161.398 25.500 C 161.636 26.102,161.752 40.073,161.534 41.979 C 161.332 43.745,160.919 44.577,160.049 44.969 C 159.668 45.141,159.616 45.207,159.616 45.522 L 159.616 45.879 164.204 45.879 L 168.792 45.879 168.792 45.518 C 168.792 45.222,168.737 45.135,168.487 45.032 C 166.853 44.355,166.765 43.600,166.765 30.291 C 166.764 21.063,166.756 20.617,166.569 20.449 C 166.284 20.190,166.341 20.171,162.870 21.707 M180.728 20.384 C 175.429 20.768,172.272 23.544,172.298 27.794 C 172.321 31.561,173.902 32.971,180.619 35.220 C 185.722 36.928,187.287 38.032,187.694 40.208 C 188.234 43.097,186.017 45.452,182.756 45.452 C 178.750 45.452,175.092 42.742,172.781 38.063 C 172.331 37.153,171.887 36.888,171.885 37.530 C 171.881 39.298,172.354 43.816,172.563 44.001 C 173.610 44.927,177.177 45.980,180.066 46.216 C 186.772 46.764,191.102 43.598,191.107 38.144 C 191.111 34.226,189.597 32.812,182.875 30.461 C 177.185 28.470,175.678 27.297,175.678 24.860 C 175.678 23.016,177.095 21.611,179.391 21.177 C 183.111 20.474,186.601 22.378,188.931 26.380 C 189.392 27.171,189.580 27.320,189.878 27.126 C 190.029 27.027,189.812 21.721,189.651 21.571 C 188.899 20.876,183.623 20.174,180.728 20.384 M209.923 21.707 L 206.722 23.124 206.690 23.490 C 206.662 23.815,206.699 23.875,207.032 24.034 C 208.670 24.815,208.632 24.596,208.673 33.449 C 208.720 43.498,208.612 44.288,207.101 44.969 C 206.720 45.141,206.668 45.207,206.668 45.522 L 206.668 45.879 211.256 45.879 L 215.844 45.879 215.844 45.518 C 215.844 45.222,215.790 45.135,215.538 45.031 C 214.830 44.738,214.261 43.833,214.022 42.621 C 213.933 42.170,213.883 38.882,213.850 31.316 C 213.800 19.865,213.819 20.253,213.294 20.281 C 213.200 20.286,211.683 20.928,209.923 21.707 M221.979 21.707 L 218.778 23.124 218.747 23.490 C 218.718 23.815,218.756 23.875,219.089 24.034 C 220.727 24.815,220.689 24.596,220.730 33.449 C 220.776 43.504,220.692 44.142,219.203 44.932 C 218.787 45.152,218.725 45.230,218.725 45.532 L 218.725 45.879 223.313 45.879 L 227.901 45.879 227.901 45.518 C 227.901 45.222,227.846 45.135,227.595 45.031 C 226.885 44.737,226.315 43.829,226.080 42.621 C 225.997 42.189,225.941 39.373,225.907 33.871 L 225.856 25.758 226.479 25.274 C 232.738 20.395,238.019 21.636,238.788 28.168 C 238.973 29.734,238.862 41.865,238.655 42.785 C 238.375 44.027,237.916 44.722,237.171 45.030 C 236.918 45.135,236.863 45.222,236.863 45.518 L 236.863 45.879 241.451 45.879 L 246.039 45.879 246.037 45.532 C 246.036 45.228,245.972 45.150,245.511 44.896 C 244.139 44.139,244.102 43.880,244.012 34.409 C 243.932 25.984,243.927 25.911,243.319 24.414 C 242.380 22.104,240.225 20.665,237.290 20.389 C 233.930 20.073,230.853 21.167,226.928 24.073 C 226.423 24.447,225.979 24.753,225.941 24.753 C 225.904 24.753,225.874 23.824,225.874 22.689 C 225.874 19.729,226.239 19.821,221.979 21.707 M260.115 21.184 C 265.508 22.455,268.109 34.648,263.518 37.137 C 262.518 37.680,260.572 37.691,259.452 37.160 C 255.661 35.364,253.554 27.797,255.573 23.229 C 256.317 21.547,258.152 20.721,260.115 21.184 M262.362 46.785 C 270.231 47.198,271.080 47.455,271.381 49.519 C 272.030 53.980,263.062 58.147,256.476 56.444 C 251.523 55.163,250.441 49.842,254.480 46.629 L 254.971 46.238 256.080 46.376 C 256.690 46.451,259.516 46.636,262.362 46.785 M83.302 51.928 C 79.497 53.609,79.476 53.628,80.581 54.343 C 81.270 54.788,81.555 55.092,81.803 55.643 C 82.035 56.156,82.165 85.860,81.944 87.558 C 81.742 89.101,81.325 89.879,80.448 90.348 C 80.160 90.502,80.067 90.625,80.041 90.886 L 80.008 91.224 84.602 91.224 L 89.197 91.224 89.197 90.858 C 89.197 90.582,89.143 90.475,88.977 90.422 C 88.629 90.312,88.030 89.735,87.806 89.295 C 87.317 88.337,87.277 87.558,87.277 79.010 L 87.277 70.984 88.525 70.088 C 93.886 66.238,98.486 67.042,99.892 72.073 C 100.222 73.253,100.271 86.849,99.950 88.222 C 99.697 89.306,99.335 89.884,98.688 90.241 C 98.227 90.495,98.162 90.573,98.161 90.878 L 98.160 91.224 102.747 91.224 L 107.335 91.224 107.335 90.864 C 107.335 90.567,107.281 90.481,107.027 90.376 C 105.479 89.734,105.408 89.291,105.315 79.595 C 105.231 70.783,105.252 71.025,104.385 69.245 C 102.636 65.659,97.138 64.586,92.345 66.897 C 90.916 67.585,89.745 68.327,87.478 69.978 C 87.281 70.121,87.277 69.908,87.277 60.528 L 87.277 50.931 87.030 50.699 C 86.703 50.392,87.011 50.291,83.302 51.928 M298.400 51.928 C 294.595 53.609,294.573 53.628,295.679 54.343 C 296.367 54.788,296.652 55.092,296.901 55.643 C 297.132 56.156,297.263 85.860,297.041 87.558 C 296.840 89.101,296.423 89.879,295.545 90.348 C 295.257 90.502,295.164 90.625,295.139 90.886 L 295.105 91.224 299.700 91.224 L 304.294 91.224 304.294 90.858 C 304.294 90.582,304.240 90.475,304.074 90.422 C 303.727 90.312,303.128 89.735,302.903 89.295 C 302.414 88.337,302.374 87.558,302.374 79.010 L 302.374 70.984 303.622 70.088 C 308.983 66.238,313.584 67.042,314.989 72.073 C 315.319 73.253,315.368 86.849,315.047 88.222 C 314.794 89.306,314.433 89.884,313.785 90.241 C 313.324 90.495,313.260 90.573,313.258 90.878 L 313.257 91.224 317.845 91.224 L 322.433 91.224 322.433 90.864 C 322.433 90.567,322.378 90.481,322.125 90.376 C 320.576 89.734,320.506 89.291,320.413 79.595 C 320.328 70.783,320.350 71.025,319.482 69.245 C 317.733 65.659,312.235 64.586,307.442 66.897 C 306.013 67.585,304.843 68.327,302.575 69.978 C 302.379 70.121,302.374 69.908,302.374 60.528 L 302.374 50.931 302.127 50.699 C 301.800 50.392,302.108 50.291,298.400 51.928 M53.241 56.269 C 53.241 56.567,53.295 56.652,53.556 56.760 C 54.456 57.133,54.966 58.096,55.154 59.782 C 55.306 61.150,55.312 86.119,55.160 87.386 C 54.957 89.074,54.587 89.816,53.719 90.277 C 53.303 90.498,53.241 90.575,53.241 90.877 L 53.241 91.224 57.935 91.224 L 62.630 91.224 62.630 90.864 C 62.630 90.567,62.576 90.481,62.322 90.376 C 60.881 89.779,60.705 88.947,60.635 82.410 L 60.581 77.384 63.233 77.323 C 67.831 77.219,70.318 76.621,72.945 74.991 C 79.069 71.190,79.697 62.174,74.100 58.397 C 71.009 56.311,68.616 55.915,59.082 55.911 L 53.241 55.908 53.241 56.269 M64.497 56.929 C 69.349 57.771,72.232 61.547,72.232 67.058 C 72.232 73.404,69.043 76.500,62.509 76.500 L 60.603 76.500 60.603 66.693 C 60.603 58.948,60.631 56.875,60.736 56.832 C 61.045 56.708,63.600 56.773,64.497 56.929 M143.692 62.693 C 140.071 65.888,139.877 66.077,139.877 66.425 L 139.877 66.791 141.531 66.791 L 143.185 66.791 143.185 76.260 C 143.186 86.301,143.214 86.946,143.700 88.349 C 145.402 93.254,151.117 92.816,155.955 87.410 L 156.661 86.622 156.437 86.397 L 156.212 86.173 155.397 86.947 C 153.187 89.046,150.347 89.215,149.030 87.327 C 148.310 86.295,148.306 86.230,148.306 76.003 L 148.306 66.791 152.088 66.791 C 154.167 66.791,155.889 66.755,155.914 66.711 C 155.939 66.667,155.990 66.499,156.029 66.338 L 156.099 66.044 152.203 66.044 L 148.306 66.044 148.306 62.683 L 148.306 59.322 147.906 59.325 C 147.534 59.328,147.238 59.564,143.692 62.693 M210.774 61.661 C 208.354 62.049,205.514 63.822,204.248 65.734 L 203.993 66.121 203.383 65.975 C 195.832 64.165,188.764 70.167,190.215 77.156 C 190.665 79.323,191.991 81.093,194.052 82.280 C 194.746 82.680,194.751 82.649,193.887 83.190 C 189.868 85.703,189.515 89.305,193.123 91.001 L 193.971 91.399 192.930 92.104 C 186.433 96.499,186.066 102.415,192.158 104.539 C 201.120 107.663,215.756 98.259,213.541 90.801 C 212.817 88.360,211.167 87.809,203.154 87.328 C 198.221 87.032,196.765 86.877,195.639 86.527 C 193.780 85.950,193.405 84.476,194.838 83.383 L 195.379 82.970 195.876 83.111 C 197.168 83.477,197.480 83.547,198.325 83.659 C 205.858 84.662,212.268 77.868,210.030 71.254 C 209.351 69.246,207.286 67.257,205.086 66.493 L 204.731 66.370 205.068 65.900 C 205.253 65.642,205.592 65.248,205.821 65.025 L 206.236 64.619 207.866 65.113 C 211.841 66.315,212.849 66.300,214.029 65.019 C 214.962 64.007,215.251 62.813,214.693 62.278 C 214.141 61.749,212.166 61.438,210.774 61.661 M122.261 65.734 C 109.389 66.777,105.246 84.561,116.564 90.185 C 127.466 95.602,139.514 85.971,136.339 74.377 C 134.828 68.858,128.868 65.199,122.261 65.734 M171.192 65.725 C 158.140 66.895,152.313 83.169,161.643 92.395 C 171.524 102.168,188.268 95.187,188.253 81.302 C 188.244 73.090,182.173 66.450,174.015 65.727 C 172.688 65.610,172.473 65.610,171.192 65.725 M218.672 67.051 L 215.471 68.466 215.439 68.833 C 215.411 69.161,215.448 69.220,215.781 69.379 C 217.419 70.160,217.381 69.942,217.422 78.794 C 217.469 88.844,217.361 89.633,215.850 90.315 C 215.469 90.486,215.417 90.553,215.417 90.867 L 215.417 91.224 220.005 91.224 L 224.593 91.224 224.593 90.864 C 224.593 90.568,224.539 90.481,224.287 90.377 C 222.817 89.768,222.669 88.964,222.600 81.184 C 222.525 72.845,222.687 72.100,225.117 69.549 L 225.714 68.923 226.567 69.194 C 232.124 70.963,234.152 70.797,235.310 68.480 C 236.169 66.764,235.623 66.001,233.340 65.728 C 229.333 65.250,224.882 67.666,222.928 71.380 L 222.619 71.966 222.591 68.985 C 222.552 64.926,222.990 65.142,218.672 67.051 M250.253 65.728 C 246.962 66.003,243.998 67.507,241.260 70.293 L 240.163 71.410 240.401 71.663 L 240.639 71.917 241.543 71.000 C 243.955 68.555,246.408 67.513,249.376 67.673 C 253.013 67.868,255.042 69.899,255.371 73.673 L 255.446 74.527 251.943 75.532 C 244.377 77.701,242.130 78.689,239.995 80.780 C 237.044 83.672,237.942 89.062,241.679 90.892 C 246.996 93.495,252.490 89.994,254.962 82.428 L 255.417 81.035 255.422 85.367 C 255.431 91.574,255.172 91.218,259.669 91.222 L 262.470 91.224 262.470 90.864 C 262.470 90.562,262.417 90.481,262.142 90.367 C 260.614 89.735,260.540 89.291,260.442 80.181 C 260.357 72.245,260.366 72.377,259.750 70.613 C 258.940 68.295,257.160 66.679,254.721 66.049 C 254.057 65.877,251.513 65.572,251.267 65.634 C 251.238 65.642,250.782 65.684,250.253 65.728 M268.474 67.033 L 265.248 68.445 265.246 68.828 C 265.244 69.134,265.298 69.235,265.511 69.332 C 266.007 69.559,266.722 70.318,266.919 70.827 C 267.216 71.597,267.217 101.029,266.920 102.107 C 266.681 102.977,266.297 103.538,265.705 103.885 C 265.304 104.119,265.244 104.202,265.244 104.519 L 265.244 104.884 269.805 104.856 L 274.366 104.828 274.399 104.496 C 274.426 104.214,274.383 104.145,274.105 104.030 C 272.587 103.401,272.398 102.430,272.395 95.250 L 272.393 90.047 272.950 90.330 C 277.037 92.401,282.513 92.017,286.340 89.391 C 294.972 83.469,293.394 67.828,283.969 65.882 C 280.818 65.232,277.298 66.108,273.515 68.486 C 272.944 68.845,272.458 69.138,272.435 69.138 C 272.412 69.138,272.393 68.424,272.393 67.550 C 272.393 65.980,272.390 65.960,272.130 65.790 C 271.776 65.558,272.081 65.454,268.474 67.033 M323.286 66.395 C 323.286 66.677,323.353 66.785,323.633 66.948 C 325.492 68.038,325.553 68.152,331.335 81.515 L 335.652 91.491 335.010 92.718 C 334.327 94.021,333.024 96.033,332.440 96.685 L 332.089 97.078 329.901 96.716 C 324.445 95.814,322.897 96.133,321.814 98.380 C 320.385 101.345,326.948 101.932,330.799 99.184 C 333.739 97.086,335.003 94.832,340.890 81.200 C 346.408 68.420,346.457 68.330,348.633 67.058 C 349.225 66.712,349.320 66.614,349.320 66.350 L 349.320 66.044 346.439 66.044 L 343.558 66.044 343.558 66.359 C 343.558 66.628,343.632 66.711,344.059 66.924 C 345.139 67.463,345.294 68.536,344.591 70.607 C 344.132 71.962,338.513 84.945,338.429 84.846 C 338.394 84.804,337.905 83.713,337.344 82.422 C 336.782 81.131,335.376 77.914,334.219 75.273 C 331.798 69.748,331.182 68.222,331.182 67.751 C 331.182 67.385,331.671 66.791,331.974 66.791 C 332.095 66.791,332.142 66.687,332.142 66.418 L 332.142 66.044 327.714 66.044 L 323.286 66.044 323.286 66.395 M174.980 66.527 C 187.135 68.471,191.860 83.278,183.101 91.976 C 174.680 100.338,160.165 95.743,157.977 84.022 C 156.098 73.956,164.886 64.913,174.980 66.527 M199.852 66.471 C 204.941 67.418,208.043 79.206,203.980 82.160 C 202.781 83.031,200.723 83.159,199.290 82.450 C 195.510 80.583,193.411 72.627,195.579 68.379 C 196.325 66.916,198.066 66.139,199.852 66.471 M123.158 66.843 C 131.203 68.939,134.933 86.796,128.001 90.029 C 122.843 92.435,117.323 87.825,115.508 79.595 C 113.676 71.288,117.264 65.308,123.158 66.843 M171.993 67.108 C 171.993 67.243,173.847 70.548,177.205 76.394 C 178.234 78.184,179.192 79.855,179.335 80.109 C 179.478 80.363,179.635 80.530,179.684 80.481 C 179.790 80.375,184.156 72.968,184.156 72.894 C 184.156 72.187,180.740 69.359,178.777 68.442 C 176.654 67.450,171.993 66.533,171.993 67.108 M170.072 67.279 C 166.075 68.003,162.095 70.851,160.251 74.306 L 159.934 74.900 167.730 74.900 C 172.018 74.900,175.506 74.864,175.482 74.820 C 174.083 72.267,171.076 67.114,170.991 67.123 C 170.926 67.129,170.512 67.200,170.072 67.279 M279.988 67.914 C 284.390 68.832,287.258 74.320,287.235 81.782 C 287.216 87.855,284.897 90.870,280.402 90.665 C 277.697 90.542,274.685 88.404,273.117 85.494 C 272.382 84.130,272.392 84.258,272.394 76.771 L 272.395 70.045 273.168 69.547 C 275.761 67.875,277.640 67.425,279.988 67.914 M184.450 73.843 C 183.986 74.591,180.275 80.904,178.403 84.129 L 176.794 86.903 181.242 86.931 C 183.688 86.946,185.730 86.919,185.779 86.870 C 185.926 86.722,186.466 85.042,186.676 84.076 C 187.359 80.934,186.454 75.975,184.808 73.843 L 184.610 73.586 184.450 73.843 M255.401 76.687 C 255.186 82.031,252.348 86.980,248.987 87.875 C 246.581 88.516,243.833 87.194,243.206 85.094 C 242.185 81.671,244.196 78.840,248.815 77.202 C 249.409 76.991,255.130 75.281,255.417 75.228 C 255.441 75.224,255.433 75.880,255.401 76.687 M159.392 76.151 C 158.246 78.825,158.147 82.679,159.146 85.756 C 159.454 86.704,160.337 88.596,160.646 88.969 L 160.854 89.222 162.069 87.049 C 163.487 84.512,168.198 76.264,168.438 75.898 L 168.603 75.647 164.106 75.647 L 159.608 75.647 159.392 76.151 M163.484 85.984 C 162.295 88.087,161.323 89.865,161.323 89.935 C 161.323 90.500,164.585 93.186,166.334 94.061 C 168.360 95.075,173.191 96.067,173.512 95.534 C 173.544 95.482,172.901 94.317,172.084 92.945 C 171.267 91.574,170.474 90.229,170.323 89.958 C 170.079 89.518,168.192 86.274,166.421 83.249 C 166.069 82.647,165.750 82.157,165.713 82.158 C 165.675 82.160,164.672 83.882,163.484 85.984 M170.138 88.210 C 170.899 89.547,174.075 94.939,174.247 95.186 L 174.443 95.467 175.272 95.317 C 179.365 94.577,182.999 91.963,185.154 88.210 L 185.445 87.703 177.647 87.703 L 169.850 87.703 170.138 88.210 M202.287 92.129 C 210.157 92.542,211.011 92.801,211.311 94.864 C 211.960 99.324,202.991 103.492,196.406 101.789 C 191.454 100.508,190.371 95.187,194.410 91.974 L 194.902 91.583 196.011 91.721 C 196.620 91.796,199.445 91.980,202.287 92.129 " stroke="none" fill="#000000" fill-rule="evenodd"></path></g></svg>