<svg id="svg" version="1.1" xmlns="http://www.w3.org/2000/svg" xmlns:xlink="http://www.w3.org/1999/xlink" width="400" height="100.032" viewBox="0, 0, 400,100.032"><g id="svgg"><path id="path0" d="M68.427 27.316 C 65.554 28.610,65.573 28.589,66.557 29.534 C 67.566 30.503,67.526 29.857,67.468 44.333 C 67.411 58.262,67.445 57.834,66.341 58.462 C 65.042 59.201,65.533 59.333,69.583 59.333 C 73.113 59.333,73.333 59.315,73.333 59.027 C 73.333 58.858,73.141 58.633,72.907 58.526 C 72.655 58.411,72.331 58.009,72.115 57.541 L 71.750 56.750 71.667 41.500 C 71.584 26.401,71.580 26.250,71.250 26.222 C 71.067 26.207,69.796 26.699,68.427 27.316 M165.333 27.314 C 162.494 28.567,162.332 28.734,163.319 29.387 C 164.384 30.092,164.357 29.688,164.301 44.083 C 164.245 58.485,164.308 57.683,163.164 58.528 C 162.150 59.278,162.373 59.333,166.417 59.333 C 169.940 59.333,170.167 59.315,170.167 59.028 C 170.167 58.860,169.992 58.629,169.778 58.515 C 168.702 57.939,168.507 56.416,168.503 48.562 L 168.500 42.875 169.747 42.013 C 173.098 39.696,175.933 39.514,177.719 41.500 C 179.032 42.962,179.083 43.297,179.083 50.500 C 179.083 57.422,178.994 58.039,177.926 58.526 C 177.692 58.633,177.500 58.858,177.500 59.027 C 177.500 59.315,177.720 59.333,181.250 59.333 C 185.300 59.333,185.791 59.201,184.492 58.462 C 183.470 57.881,183.436 57.634,183.329 50.000 C 183.236 43.394,183.215 43.042,182.866 42.158 C 181.072 37.617,175.546 37.237,169.806 41.259 L 168.503 42.172 168.460 34.213 C 168.422 27.290,168.384 26.249,168.167 26.214 C 168.029 26.192,166.754 26.687,165.333 27.314 M348.750 27.308 C 346.022 28.530,345.713 28.832,346.649 29.359 C 347.820 30.019,347.750 29.109,347.750 43.659 L 347.750 56.750 347.385 57.541 C 347.169 58.009,346.845 58.411,346.593 58.526 C 346.359 58.633,346.167 58.858,346.167 59.027 C 346.167 59.315,346.387 59.333,349.917 59.333 C 353.967 59.333,354.458 59.201,353.159 58.462 C 352.116 57.869,352.089 57.663,352.032 49.890 L 351.980 42.864 353.050 42.101 C 357.333 39.044,361.081 39.617,362.236 43.505 C 362.552 44.569,362.621 55.689,362.320 57.000 C 362.145 57.758,361.455 58.667,361.052 58.667 C 360.932 58.667,360.833 58.817,360.833 59.000 C 360.833 59.323,360.944 59.333,364.583 59.333 C 368.222 59.333,368.333 59.323,368.333 59.000 C 368.333 58.817,368.269 58.667,368.189 58.667 C 367.876 58.667,367.211 57.806,367.002 57.130 C 366.843 56.614,366.753 54.525,366.680 49.583 L 366.577 42.750 366.095 41.699 C 364.228 37.630,358.592 37.422,353.290 41.227 L 352.003 42.150 351.960 34.200 C 351.909 24.817,352.323 25.707,348.750 27.308 M21.506 31.186 C 20.546 31.643,19.735 32.043,19.702 32.075 C 19.670 32.108,19.797 32.435,19.984 32.802 C 20.751 34.306,20.898 33.807,16.425 44.909 C 11.460 57.235,11.380 57.398,9.855 58.333 C 8.539 59.141,8.856 59.333,11.500 59.333 C 14.033 59.333,14.485 59.122,13.342 58.472 C 12.250 57.851,12.423 56.740,14.351 52.007 L 15.711 48.667 21.231 48.668 L 26.750 48.670 28.288 52.377 C 30.544 57.813,30.670 58.318,29.833 58.583 C 29.650 58.642,29.500 58.834,29.500 59.011 C 29.500 59.320,29.655 59.333,33.250 59.333 C 37.568 59.333,37.528 59.352,36.099 58.000 C 34.849 56.817,34.618 56.332,29.404 43.909 C 26.867 37.863,24.555 32.355,24.265 31.668 C 23.626 30.151,23.665 30.157,21.506 31.186 M140.834 30.792 C 140.835 30.952,141.063 31.213,141.341 31.371 C 142.447 32.000,142.417 31.621,142.417 44.917 C 142.417 58.213,142.447 57.833,141.341 58.462 C 140.036 59.205,140.527 59.333,144.667 59.333 C 148.277 59.333,148.500 59.316,148.500 59.027 C 148.500 58.858,148.308 58.633,148.074 58.526 C 147.114 58.089,146.942 57.213,146.865 52.375 L 146.794 48.000 148.740 48.000 C 155.497 48.000,159.600 45.468,160.758 40.583 C 161.812 36.138,159.275 32.335,154.424 31.089 C 151.898 30.440,140.832 30.198,140.834 30.792 M151.160 31.652 C 154.524 32.699,156.263 35.501,156.238 39.833 C 156.210 44.766,153.935 47.097,148.958 47.294 L 146.833 47.378 146.833 39.368 C 146.833 31.883,146.852 31.352,147.125 31.272 C 147.664 31.113,150.193 31.351,151.160 31.652 M40.299 31.491 C 37.400 32.411,37.788 36.670,40.797 36.959 C 43.014 37.172,44.495 34.972,43.508 32.934 C 42.939 31.758,41.498 31.110,40.299 31.491 M78.632 31.491 C 75.733 32.411,76.122 36.670,79.131 36.959 C 81.347 37.172,82.828 34.972,81.842 32.934 C 81.272 31.758,79.831 31.110,78.632 31.491 M214.583 35.998 C 210.930 39.225,210.785 39.500,212.739 39.500 L 214.000 39.500 214.001 46.542 C 214.003 55.710,214.184 57.194,215.467 58.563 C 216.853 60.040,219.574 60.050,221.779 58.586 C 223.239 57.617,225.079 55.779,224.943 55.425 C 224.844 55.166,224.736 55.214,224.100 55.800 C 222.206 57.546,219.709 57.640,218.756 56.000 C 218.430 55.439,218.415 55.113,218.369 47.458 L 218.321 39.500 221.391 39.500 C 224.321 39.500,224.465 39.485,224.548 39.167 C 224.633 38.842,224.553 38.833,221.484 38.833 L 218.333 38.833 218.333 36.083 C 218.333 32.531,218.505 32.535,214.583 35.998 M126.996 35.546 C 125.559 36.036,124.336 36.840,123.357 37.938 L 122.557 38.836 121.673 38.668 C 115.109 37.423,109.550 43.152,111.696 48.948 C 112.041 49.879,113.440 51.455,114.332 51.916 C 115.009 52.266,114.983 52.329,113.842 53.133 C 111.134 55.043,111.066 57.863,113.697 59.082 L 114.491 59.450 113.632 60.007 C 107.994 63.659,108.150 69.066,113.933 70.431 C 120.545 71.993,130.500 65.870,130.500 60.241 C 130.500 57.160,128.966 56.477,121.167 56.083 C 118.492 55.949,116.383 55.709,115.750 55.469 C 114.431 54.969,114.105 53.941,114.995 53.088 L 115.489 52.614 116.748 52.911 C 120.260 53.738,123.235 52.900,125.733 50.382 C 129.138 46.951,128.338 41.381,124.166 39.467 C 123.180 39.015,123.177 38.999,123.882 38.229 L 124.431 37.630 125.757 38.049 C 129.368 39.189,130.577 38.952,131.417 36.943 C 132.071 35.377,129.695 34.626,126.996 35.546 M276.649 35.398 C 275.349 35.773,274.134 36.529,272.947 37.700 L 271.812 38.821 270.966 38.660 C 262.609 37.075,256.609 47.325,263.340 51.687 C 264.336 52.332,264.346 52.277,263.047 53.231 C 260.396 55.176,260.402 57.781,263.061 59.119 L 263.705 59.443 262.644 60.207 C 257.287 64.065,257.562 69.085,263.205 70.415 C 270.636 72.167,281.293 64.724,279.667 58.918 C 279.133 57.009,277.251 56.427,270.500 56.083 C 264.816 55.793,263.230 55.201,263.891 53.618 C 264.260 52.737,264.758 52.578,266.100 52.915 C 269.367 53.734,272.558 52.876,274.900 50.548 C 278.455 47.015,277.770 41.511,273.524 39.495 C 272.511 39.014,272.508 39.001,273.216 38.229 L 273.765 37.630 275.091 38.047 C 278.543 39.131,279.757 38.951,280.646 37.219 C 281.460 35.636,279.275 34.641,276.649 35.398 M23.747 41.500 C 25.104 44.754,26.249 47.548,26.293 47.708 C 26.367 47.982,26.044 48.000,21.168 48.000 C 17.073 48.000,15.982 47.956,16.046 47.792 C 17.791 43.322,21.100 35.371,21.176 35.461 C 21.234 35.528,22.391 38.246,23.747 41.500 M239.583 36.902 C 227.968 39.160,223.675 53.614,232.197 61.773 C 240.961 70.163,255.381 64.912,256.827 52.805 C 257.964 43.283,249.050 35.063,239.583 36.902 M245.740 37.740 C 261.199 41.985,258.796 64.632,242.833 65.130 C 225.425 65.674,223.025 40.747,240.167 37.438 C 241.033 37.271,244.768 37.474,245.740 37.740 M239.583 38.248 C 236.035 39.028,233.085 41.052,231.163 44.027 C 230.798 44.590,230.500 45.115,230.500 45.193 C 230.500 45.270,233.763 45.333,237.751 45.333 L 245.003 45.333 244.466 44.375 C 242.095 40.147,240.892 38.104,240.750 38.069 C 240.658 38.046,240.133 38.127,239.583 38.248 M241.937 38.542 C 242.090 38.840,243.453 41.258,244.966 43.917 C 246.478 46.575,247.923 49.123,248.177 49.578 C 248.825 50.744,248.710 50.849,250.958 47.021 C 253.374 42.909,253.284 43.482,251.755 41.938 C 249.338 39.497,245.909 38.000,242.735 38.000 L 241.658 38.000 241.937 38.542 M40.083 39.656 C 37.372 40.885,37.158 41.098,38.083 41.645 C 39.181 42.292,39.189 42.364,39.133 50.140 C 39.078 57.814,39.072 57.857,37.989 58.473 C 36.710 59.201,37.213 59.333,41.250 59.333 C 44.889 59.333,45.000 59.323,45.000 59.000 C 45.000 58.817,44.935 58.667,44.856 58.667 C 44.565 58.667,43.832 57.774,43.641 57.188 C 43.506 56.771,43.415 53.788,43.348 47.583 C 43.252 38.740,43.244 38.583,42.917 38.553 C 42.733 38.537,41.458 39.033,40.083 39.656 M53.250 38.733 C 49.951 39.392,47.938 41.573,47.927 44.500 C 47.915 47.609,49.148 48.724,54.745 50.665 C 59.898 52.452,61.493 54.210,60.232 56.717 C 58.111 60.932,51.704 59.139,48.587 53.458 C 47.913 52.231,47.425 51.951,47.569 52.875 C 47.616 53.173,47.699 54.167,47.753 55.083 C 47.917 57.836,47.868 57.723,49.151 58.315 C 55.720 61.342,62.427 59.226,63.183 53.888 C 63.680 50.375,62.277 48.782,57.071 46.943 C 51.328 44.916,49.695 43.351,50.901 41.033 C 52.686 37.603,58.895 38.894,61.320 43.199 C 62.126 44.629,62.412 44.404,62.273 42.448 C 62.215 41.623,62.167 40.630,62.167 40.240 C 62.167 39.544,62.153 39.526,61.375 39.258 C 59.390 38.574,55.351 38.313,53.250 38.733 M78.417 39.660 C 75.711 40.889,75.497 41.102,76.417 41.645 C 77.514 42.292,77.523 42.364,77.467 50.140 C 77.411 57.814,77.406 57.857,76.323 58.473 C 75.043 59.201,75.546 59.333,79.583 59.333 C 83.222 59.333,83.333 59.323,83.333 59.000 C 83.333 58.817,83.269 58.667,83.189 58.667 C 82.897 58.667,82.165 57.774,81.976 57.188 C 81.842 56.774,81.750 53.745,81.682 47.583 C 81.585 38.740,81.578 38.583,81.250 38.554 C 81.067 38.538,79.792 39.036,78.417 39.660 M88.375 39.628 C 85.596 40.848,85.324 41.126,86.341 41.705 C 87.302 42.251,87.333 42.503,87.333 49.653 C 87.333 56.984,87.272 57.560,86.404 58.322 C 85.297 59.294,85.418 59.333,89.500 59.333 C 93.584 59.333,93.703 59.294,92.593 58.320 C 91.696 57.532,91.641 56.982,91.699 49.424 L 91.750 42.764 92.583 42.134 C 95.584 39.865,98.773 39.525,100.581 41.281 C 102.011 42.670,102.209 43.918,102.138 51.105 C 102.077 57.345,101.961 58.055,100.926 58.526 C 100.692 58.633,100.500 58.858,100.500 59.027 C 100.500 59.315,100.720 59.333,104.250 59.333 C 108.300 59.333,108.791 59.201,107.492 58.462 C 106.473 57.882,106.438 57.633,106.330 50.000 C 106.244 43.922,106.196 42.984,105.934 42.264 C 104.230 37.596,98.088 37.224,92.547 41.453 C 92.153 41.754,91.794 42.000,91.749 42.000 C 91.704 42.000,91.667 41.258,91.667 40.351 C 91.667 39.001,91.619 38.684,91.403 38.601 C 91.022 38.455,91.138 38.416,88.375 39.628 M195.667 38.759 C 186.523 40.723,183.899 53.437,191.687 58.046 C 201.338 63.758,212.796 53.664,207.829 43.825 C 205.887 39.978,200.479 37.726,195.667 38.759 M283.750 39.650 C 281.043 40.867,280.815 41.089,281.710 41.642 C 282.766 42.294,282.750 42.170,282.750 49.900 C 282.750 57.675,282.726 57.864,281.675 58.462 C 280.375 59.201,280.866 59.333,284.917 59.333 C 288.968 59.333,289.452 59.202,288.180 58.451 C 287.167 57.852,287.083 57.267,287.083 50.747 L 287.083 44.911 287.630 43.799 C 287.931 43.187,288.494 42.343,288.880 41.923 L 289.583 41.159 291.333 41.676 C 293.781 42.400,295.549 42.505,296.329 41.971 C 297.717 41.023,298.132 39.417,297.125 38.894 C 294.403 37.481,288.824 39.838,287.416 42.996 L 287.083 43.743 287.000 41.163 C 286.898 38.018,287.135 38.128,283.750 39.650 M308.250 38.738 C 305.662 39.336,300.918 42.651,301.630 43.363 C 301.785 43.519,301.990 43.396,302.551 42.811 C 306.778 38.399,313.481 39.608,313.711 44.825 L 313.750 45.716 310.250 46.754 C 302.375 49.090,300.234 50.548,299.893 53.804 C 299.308 59.408,306.122 61.753,310.415 57.425 C 311.699 56.130,312.678 54.460,313.400 52.333 L 313.825 51.083 313.829 54.699 C 313.835 59.478,313.659 59.228,317.069 59.304 C 319.810 59.365,320.002 59.264,318.936 58.328 C 318.079 57.575,318.000 56.986,317.999 51.301 C 317.996 43.109,317.545 41.222,315.221 39.682 C 313.659 38.647,310.495 38.219,308.250 38.738 M324.380 39.633 C 321.546 40.881,321.518 40.915,322.567 41.897 C 323.555 42.821,323.536 42.510,323.461 56.250 C 323.394 68.829,323.407 68.661,322.409 69.457 C 321.356 70.298,321.485 70.333,325.583 70.333 C 329.594 70.333,329.989 70.239,328.838 69.560 C 327.858 68.981,327.762 68.436,327.700 63.127 L 327.644 58.338 328.530 58.750 C 335.983 62.209,344.106 56.242,343.611 47.670 C 343.115 39.057,336.279 36.011,328.417 40.896 L 327.750 41.311 327.667 39.947 C 327.560 38.204,327.612 38.209,324.380 39.633 M369.173 39.125 C 369.176 39.285,369.462 39.612,369.807 39.850 C 370.908 40.611,371.633 42.024,375.452 50.863 L 379.191 59.518 378.657 60.551 C 378.135 61.558,377.317 62.848,376.693 63.646 L 376.383 64.042 373.904 63.670 C 370.147 63.107,369.121 63.324,368.098 64.902 C 366.449 67.445,371.686 68.131,375.141 65.824 C 377.667 64.137,378.495 62.667,383.680 50.667 C 387.465 41.908,388.043 40.820,389.418 39.877 C 390.812 38.920,390.695 38.833,388.012 38.833 C 385.498 38.833,385.060 39.011,386.164 39.582 C 387.315 40.177,387.091 41.257,384.644 46.917 C 383.534 49.483,382.395 52.127,382.114 52.792 C 381.832 53.456,381.556 54.000,381.500 54.000 C 381.342 54.000,375.791 41.253,375.601 40.454 C 375.515 40.090,375.580 39.909,375.912 39.602 C 376.705 38.867,376.567 38.833,372.750 38.833 C 369.446 38.833,369.167 38.856,369.173 39.125 M120.082 39.405 C 124.027 41.053,125.554 50.412,122.169 52.194 C 118.760 53.989,115.151 49.881,115.115 44.167 C 115.090 40.197,117.180 38.193,120.082 39.405 M269.437 39.438 C 273.364 41.301,274.853 50.456,271.506 52.163 C 268.029 53.938,264.488 49.976,264.433 44.250 C 264.394 40.220,266.605 38.094,269.437 39.438 M198.435 39.688 C 201.403 40.798,204.339 45.959,204.755 50.795 C 205.584 60.430,196.129 61.846,192.445 52.639 C 189.225 44.591,192.517 37.474,198.435 39.688 M335.052 40.727 C 340.329 43.309,341.673 55.919,336.932 58.373 C 334.483 59.641,330.930 58.413,328.926 55.605 C 327.665 53.839,327.667 53.847,327.667 47.574 L 327.667 42.024 328.687 41.405 C 330.884 40.070,333.204 39.823,335.052 40.727 M252.466 45.708 C 251.969 46.556,250.489 49.087,249.177 51.333 C 247.865 53.579,246.644 55.660,246.465 55.958 L 246.139 56.500 250.370 56.500 L 254.601 56.500 254.963 55.375 C 256.015 52.108,255.758 48.541,254.245 45.395 C 253.508 43.862,253.551 43.855,252.466 45.708 M229.689 47.042 C 228.526 50.625,228.905 54.694,230.694 57.827 L 231.197 58.707 231.822 57.645 C 232.166 57.061,233.184 55.271,234.085 53.667 C 235.714 50.763,237.836 47.089,238.296 46.375 L 238.538 46.000 234.283 46.000 L 230.027 46.000 229.689 47.042 M313.782 47.792 C 313.363 53.873,309.452 57.999,305.743 56.272 C 302.455 54.741,303.116 50.446,306.930 48.560 C 307.984 48.040,312.951 46.407,313.650 46.352 C 313.840 46.337,313.864 46.601,313.782 47.792 M234.165 54.867 C 233.320 56.361,232.409 57.973,232.140 58.450 L 231.652 59.316 232.284 60.026 C 234.593 62.616,237.474 64.100,240.964 64.496 C 243.429 64.776,243.416 64.965,241.199 61.195 C 240.139 59.392,238.536 56.642,237.636 55.083 C 236.737 53.525,235.933 52.228,235.851 52.200 C 235.769 52.173,235.011 53.373,234.165 54.867 M239.694 57.305 C 239.725 57.380,240.688 59.033,241.833 60.977 L 243.917 64.512 244.583 64.407 C 247.031 64.020,249.671 62.641,251.585 60.750 C 252.705 59.643,254.167 57.672,254.167 57.270 C 254.167 57.213,250.898 57.167,246.903 57.167 C 242.908 57.167,239.664 57.229,239.694 57.305 M120.633 60.003 C 127.633 60.337,128.571 60.645,128.541 62.594 C 128.455 68.288,114.452 70.456,112.996 65.000 C 112.310 62.426,113.987 59.533,116.049 59.735 C 116.581 59.787,118.643 59.908,120.633 60.003 M269.750 59.996 C 277.095 60.358,277.835 60.590,277.832 62.525 C 277.822 67.890,265.029 70.512,262.604 65.646 C 261.763 63.958,262.146 61.847,263.551 60.437 L 264.361 59.623 265.389 59.727 C 265.954 59.785,267.917 59.905,269.750 59.996 " stroke="none" fill="#070707" fill-rule="evenodd"></path><path id="path1" d="M0.000 50.000 L 0.000 100.000 200.000 100.000 L 400.000 100.000 400.000 50.000 L 400.000 0.000 200.000 0.000 L 0.000 0.000 0.000 50.000 M71.667 41.500 L 71.750 56.750 72.115 57.541 C 72.331 58.009,72.655 58.411,72.907 58.526 C 73.141 58.633,73.333 58.858,73.333 59.027 C 73.333 59.315,73.113 59.333,69.583 59.333 C 65.533 59.333,65.042 59.201,66.341 58.462 C 67.445 57.834,67.411 58.262,67.468 44.333 C 67.526 29.857,67.566 30.503,66.557 29.534 C 66.146 29.140,65.839 28.732,65.874 28.628 C 65.961 28.368,70.834 26.188,71.250 26.222 C 71.580 26.250,71.584 26.401,71.667 41.500 M168.460 34.213 L 168.503 42.172 169.806 41.259 C 175.546 37.237,181.072 37.617,182.866 42.158 C 183.215 43.042,183.236 43.394,183.329 50.000 C 183.436 57.634,183.470 57.881,184.492 58.462 C 185.791 59.201,185.300 59.333,181.250 59.333 C 177.720 59.333,177.500 59.315,177.500 59.027 C 177.500 58.858,177.692 58.633,177.926 58.526 C 178.994 58.039,179.083 57.422,179.083 50.500 C 179.083 43.297,179.032 42.962,177.719 41.500 C 175.933 39.514,173.098 39.696,169.747 42.013 L 168.500 42.875 168.503 48.562 C 168.507 56.416,168.702 57.939,169.778 58.515 C 169.992 58.629,170.167 58.860,170.167 59.028 C 170.167 59.315,169.940 59.333,166.417 59.333 C 162.373 59.333,162.150 59.278,163.164 58.528 C 164.308 57.683,164.245 58.485,164.301 44.083 C 164.357 29.688,164.384 30.092,163.319 29.387 C 162.951 29.144,162.674 28.836,162.701 28.700 C 162.755 28.428,167.765 26.149,168.167 26.214 C 168.384 26.249,168.422 27.290,168.460 34.213 M351.960 34.200 L 352.003 42.150 353.290 41.227 C 358.592 37.422,364.228 37.630,366.095 41.699 L 366.577 42.750 366.680 49.583 C 366.753 54.525,366.843 56.614,367.002 57.130 C 367.211 57.806,367.876 58.667,368.189 58.667 C 368.269 58.667,368.333 58.817,368.333 59.000 C 368.333 59.323,368.222 59.333,364.583 59.333 C 360.944 59.333,360.833 59.323,360.833 59.000 C 360.833 58.817,360.932 58.667,361.052 58.667 C 361.455 58.667,362.145 57.758,362.320 57.000 C 362.621 55.689,362.552 44.569,362.236 43.505 C 361.081 39.617,357.333 39.044,353.050 42.101 L 351.980 42.864 352.032 49.890 C 352.089 57.663,352.116 57.869,353.159 58.462 C 354.458 59.201,353.967 59.333,349.917 59.333 C 346.387 59.333,346.167 59.315,346.167 59.027 C 346.167 58.858,346.359 58.633,346.593 58.526 C 346.845 58.411,347.169 58.009,347.385 57.541 L 347.750 56.750 347.750 43.659 C 347.750 29.109,347.820 30.019,346.649 29.359 C 345.713 28.832,346.022 28.530,348.750 27.308 C 352.323 25.707,351.909 24.817,351.960 34.200 M24.265 31.668 C 24.555 32.355,26.867 37.863,29.404 43.909 C 34.618 56.332,34.849 56.817,36.099 58.000 C 37.528 59.352,37.568 59.333,33.250 59.333 C 29.655 59.333,29.500 59.320,29.500 59.011 C 29.500 58.834,29.650 58.642,29.833 58.583 C 30.670 58.318,30.544 57.813,28.288 52.377 L 26.750 48.670 21.231 48.668 L 15.711 48.667 14.351 52.007 C 12.423 56.740,12.250 57.851,13.342 58.472 C 14.485 59.122,14.033 59.333,11.500 59.333 C 8.856 59.333,8.539 59.141,9.855 58.333 C 11.380 57.398,11.460 57.235,16.425 44.909 C 20.898 33.807,20.751 34.306,19.984 32.802 C 19.797 32.435,19.670 32.108,19.702 32.075 C 19.909 31.869,23.296 30.361,23.495 30.387 C 23.629 30.405,23.976 30.981,24.265 31.668 M151.674 30.667 C 158.457 31.310,162.032 35.212,160.758 40.583 C 159.600 45.468,155.497 48.000,148.740 48.000 L 146.794 48.000 146.865 52.375 C 146.942 57.213,147.114 58.089,148.074 58.526 C 148.308 58.633,148.500 58.858,148.500 59.027 C 148.500 59.316,148.277 59.333,144.667 59.333 C 140.527 59.333,140.036 59.205,141.341 58.462 C 142.447 57.833,142.417 58.213,142.417 44.917 C 142.417 31.621,142.447 32.000,141.341 31.371 C 141.063 31.213,140.835 30.952,140.834 30.792 C 140.833 30.446,148.425 30.359,151.674 30.667 M147.125 31.272 C 146.852 31.352,146.833 31.883,146.833 39.368 L 146.833 47.378 148.958 47.294 C 153.935 47.097,156.210 44.766,156.238 39.833 C 156.263 35.501,154.524 32.699,151.160 31.652 C 150.193 31.351,147.664 31.113,147.125 31.272 M42.605 31.847 C 43.846 32.614,44.195 34.692,43.285 35.886 C 41.692 37.974,38.333 36.892,38.333 34.292 C 38.333 31.950,40.638 30.631,42.605 31.847 M80.939 31.847 C 82.179 32.614,82.529 34.692,81.618 35.886 C 80.026 37.974,76.667 36.892,76.667 34.292 C 76.667 31.950,78.971 30.631,80.939 31.847 M218.333 36.083 L 218.333 38.833 221.484 38.833 C 224.553 38.833,224.633 38.842,224.548 39.167 C 224.465 39.485,224.321 39.500,221.391 39.500 L 218.321 39.500 218.369 47.458 C 218.415 55.113,218.430 55.439,218.756 56.000 C 219.709 57.640,222.206 57.546,224.100 55.800 C 224.736 55.214,224.844 55.166,224.943 55.425 C 225.079 55.779,223.239 57.617,221.779 58.586 C 219.574 60.050,216.853 60.040,215.467 58.563 C 214.184 57.194,214.003 55.710,214.001 46.542 L 214.000 39.500 212.739 39.500 C 210.785 39.500,210.930 39.225,214.583 35.998 C 218.505 32.535,218.333 32.531,218.333 36.083 M130.543 35.343 C 131.807 35.693,131.878 36.822,130.714 38.038 C 129.796 38.996,128.764 38.998,125.757 38.049 L 124.431 37.630 123.882 38.229 C 123.177 38.999,123.180 39.015,124.166 39.467 C 128.338 41.381,129.138 46.951,125.733 50.382 C 123.235 52.900,120.260 53.738,116.748 52.911 L 115.489 52.614 114.995 53.088 C 114.105 53.941,114.431 54.969,115.750 55.469 C 116.383 55.709,118.492 55.949,121.167 56.083 C 128.966 56.477,130.500 57.160,130.500 60.241 C 130.500 65.870,120.545 71.993,113.933 70.431 C 108.150 69.066,107.994 63.659,113.632 60.007 L 114.491 59.450 113.697 59.082 C 111.066 57.863,111.134 55.043,113.842 53.133 C 114.983 52.329,115.009 52.266,114.332 51.916 C 113.440 51.455,112.041 49.879,111.696 48.948 C 109.550 43.152,115.109 37.423,121.673 38.668 L 122.557 38.836 123.357 37.938 C 125.245 35.820,128.295 34.718,130.543 35.343 M280.403 35.559 C 281.424 36.228,280.477 38.269,278.955 38.679 C 278.218 38.877,277.209 38.712,275.091 38.047 L 273.765 37.630 273.216 38.229 C 272.508 39.001,272.511 39.014,273.524 39.495 C 277.770 41.511,278.455 47.015,274.900 50.548 C 272.558 52.876,269.367 53.734,266.100 52.915 C 264.758 52.578,264.260 52.737,263.891 53.618 C 263.230 55.201,264.816 55.793,270.500 56.083 C 278.519 56.492,280.071 57.268,279.794 60.731 C 279.570 63.521,276.469 66.969,272.431 68.916 C 261.800 74.044,253.583 66.732,262.644 60.207 L 263.705 59.443 263.061 59.119 C 260.402 57.781,260.396 55.176,263.047 53.231 C 264.346 52.277,264.336 52.332,263.340 51.687 C 256.609 47.325,262.609 37.075,270.966 38.660 L 271.812 38.821 272.947 37.700 C 275.195 35.482,278.734 34.466,280.403 35.559 M18.599 41.461 C 17.240 44.828,16.090 47.677,16.046 47.792 C 15.982 47.956,17.073 48.000,21.168 48.000 C 26.044 48.000,26.367 47.982,26.293 47.708 C 26.175 47.276,21.299 35.604,21.176 35.461 C 21.119 35.393,19.959 38.093,18.599 41.461 M246.083 37.162 C 251.058 38.504,255.155 42.590,256.408 47.459 C 260.087 61.751,242.830 71.953,232.197 61.773 C 221.407 51.443,231.660 33.272,246.083 37.162 M240.167 37.438 C 226.652 40.047,223.979 57.907,236.218 63.827 C 247.687 69.374,259.886 57.926,255.215 46.000 C 252.980 40.293,245.988 36.315,240.167 37.438 M242.423 40.763 C 243.251 42.223,244.170 43.848,244.466 44.375 L 245.003 45.333 237.751 45.333 C 233.763 45.333,230.500 45.270,230.500 45.193 C 230.500 45.115,230.798 44.590,231.163 44.027 C 233.085 41.052,236.035 39.028,239.583 38.248 C 240.925 37.953,240.729 37.780,242.423 40.763 M244.961 38.242 C 247.577 38.792,249.881 40.045,251.755 41.938 C 253.284 43.482,253.374 42.909,250.958 47.021 C 248.710 50.849,248.825 50.744,248.177 49.578 C 247.923 49.123,246.478 46.575,244.966 43.917 C 243.453 41.258,242.090 38.840,241.937 38.542 L 241.658 38.000 242.735 38.000 C 243.327 38.000,244.329 38.109,244.961 38.242 M43.348 47.583 C 43.415 53.788,43.506 56.771,43.641 57.188 C 43.832 57.774,44.565 58.667,44.856 58.667 C 44.935 58.667,45.000 58.817,45.000 59.000 C 45.000 59.323,44.889 59.333,41.250 59.333 C 37.213 59.333,36.710 59.201,37.989 58.473 C 39.072 57.857,39.078 57.814,39.133 50.140 C 39.189 42.364,39.181 42.292,38.083 41.645 C 37.742 41.443,37.505 41.183,37.534 41.040 C 37.593 40.743,42.427 38.509,42.917 38.553 C 43.244 38.583,43.252 38.740,43.348 47.583 M59.000 38.744 C 61.668 39.151,62.167 39.387,62.167 40.240 C 62.167 40.630,62.215 41.623,62.273 42.448 C 62.412 44.404,62.126 44.629,61.320 43.199 C 58.895 38.894,52.686 37.603,50.901 41.033 C 49.695 43.351,51.328 44.916,57.071 46.943 C 62.277 48.782,63.680 50.375,63.183 53.888 C 62.427 59.226,55.720 61.342,49.151 58.315 C 47.868 57.723,47.917 57.836,47.753 55.083 C 47.699 54.167,47.616 53.173,47.569 52.875 C 47.425 51.951,47.913 52.231,48.587 53.458 C 51.704 59.139,58.111 60.932,60.232 56.717 C 61.493 54.210,59.898 52.452,54.745 50.665 C 49.148 48.724,47.915 47.609,47.927 44.500 C 47.944 40.004,52.328 37.725,59.000 38.744 M81.682 47.583 C 81.750 53.745,81.842 56.774,81.976 57.188 C 82.165 57.774,82.897 58.667,83.189 58.667 C 83.269 58.667,83.333 58.817,83.333 59.000 C 83.333 59.323,83.222 59.333,79.583 59.333 C 75.546 59.333,75.043 59.201,76.323 58.473 C 77.406 57.857,77.411 57.814,77.467 50.140 C 77.523 42.364,77.514 42.292,76.417 41.645 C 76.079 41.445,75.839 41.183,75.867 41.043 C 75.926 40.749,80.765 38.512,81.250 38.554 C 81.578 38.583,81.585 38.740,81.682 47.583 M91.403 38.601 C 91.619 38.684,91.667 39.001,91.667 40.351 C 91.667 41.258,91.704 42.000,91.749 42.000 C 91.794 42.000,92.153 41.754,92.547 41.453 C 98.088 37.224,104.230 37.596,105.934 42.264 C 106.196 42.984,106.244 43.922,106.330 50.000 C 106.438 57.633,106.473 57.882,107.492 58.462 C 108.791 59.201,108.300 59.333,104.250 59.333 C 100.720 59.333,100.500 59.315,100.500 59.027 C 100.500 58.858,100.692 58.633,100.926 58.526 C 102.367 57.870,102.816 45.653,101.512 42.611 C 100.204 39.561,96.265 39.350,92.583 42.134 L 91.750 42.764 91.699 49.424 C 91.641 56.982,91.696 57.532,92.593 58.320 C 93.703 59.294,93.584 59.333,89.500 59.333 C 85.418 59.333,85.297 59.294,86.404 58.322 C 87.272 57.560,87.333 56.984,87.333 49.653 C 87.333 42.503,87.302 42.251,86.341 41.705 C 85.324 41.126,85.596 40.848,88.375 39.628 C 91.138 38.416,91.022 38.455,91.403 38.601 M200.444 38.749 C 213.609 41.256,210.634 60.302,197.183 59.622 C 191.101 59.315,187.103 55.329,187.115 49.583 C 187.129 42.410,193.306 37.389,200.444 38.749 M287.000 41.163 L 287.083 43.743 287.416 42.996 C 288.824 39.838,294.403 37.481,297.125 38.894 C 298.132 39.417,297.717 41.023,296.329 41.971 C 295.549 42.505,293.781 42.400,291.333 41.676 L 289.583 41.159 288.880 41.923 C 288.494 42.343,287.931 43.187,287.630 43.799 L 287.083 44.911 287.083 50.747 C 287.083 57.267,287.167 57.852,288.180 58.451 C 289.452 59.202,288.968 59.333,284.917 59.333 C 280.866 59.333,280.375 59.201,281.675 58.462 C 282.726 57.864,282.750 57.675,282.750 49.900 C 282.750 42.170,282.766 42.294,281.710 41.642 C 280.815 41.089,281.043 40.867,283.750 39.650 C 287.135 38.128,286.898 38.018,287.000 41.163 M313.591 38.895 C 317.264 40.049,317.996 42.110,317.999 51.301 C 318.000 56.986,318.079 57.575,318.936 58.328 C 320.002 59.264,319.810 59.365,317.069 59.304 C 313.659 59.228,313.835 59.478,313.829 54.699 L 313.825 51.083 313.400 52.333 C 312.678 54.460,311.699 56.130,310.415 57.425 C 306.122 61.753,299.308 59.408,299.893 53.804 C 300.234 50.548,302.375 49.090,310.250 46.754 L 313.750 45.716 313.711 44.825 C 313.481 39.608,306.778 38.399,302.551 42.811 C 301.990 43.396,301.785 43.519,301.630 43.363 C 301.189 42.922,304.441 40.186,306.429 39.324 C 308.370 38.483,311.653 38.287,313.591 38.895 M327.667 39.947 L 327.750 41.311 328.417 40.896 C 336.279 36.011,343.115 39.057,343.611 47.670 C 344.106 56.242,335.983 62.209,328.530 58.750 L 327.644 58.338 327.700 63.127 C 327.762 68.436,327.858 68.981,328.838 69.560 C 329.989 70.239,329.594 70.333,325.583 70.333 C 321.485 70.333,321.356 70.298,322.409 69.457 C 323.407 68.661,323.394 68.829,323.461 56.250 C 323.536 42.510,323.555 42.821,322.567 41.897 C 321.518 40.915,321.546 40.881,324.380 39.633 C 327.612 38.209,327.560 38.204,327.667 39.947 M376.333 39.023 C 376.333 39.127,376.144 39.387,375.912 39.602 C 375.580 39.909,375.515 40.090,375.601 40.454 C 375.791 41.253,381.342 54.000,381.500 54.000 C 381.556 54.000,381.832 53.456,382.114 52.792 C 382.395 52.127,383.534 49.483,384.644 46.917 C 387.091 41.257,387.315 40.177,386.164 39.582 C 385.060 39.011,385.498 38.833,388.012 38.833 C 390.695 38.833,390.812 38.920,389.418 39.877 C 388.043 40.820,387.465 41.908,383.680 50.667 C 378.495 62.667,377.667 64.137,375.141 65.824 C 371.686 68.131,366.449 67.445,368.098 64.902 C 369.121 63.324,370.147 63.107,373.904 63.670 L 376.383 64.042 376.693 63.646 C 377.317 62.848,378.135 61.558,378.657 60.551 L 379.191 59.518 375.452 50.863 C 371.633 42.024,370.908 40.611,369.807 39.850 C 368.475 38.930,368.756 38.833,372.750 38.833 C 375.313 38.833,376.333 38.887,376.333 39.023 M117.059 39.433 C 113.699 41.090,114.902 50.304,118.720 52.152 C 121.850 53.668,124.548 51.051,124.080 46.954 C 123.450 41.446,120.148 37.909,117.059 39.433 M266.370 39.443 C 262.994 41.108,264.211 50.292,268.054 52.153 C 271.032 53.594,273.390 51.596,273.369 47.650 C 273.340 42.183,269.632 37.836,266.370 39.443 M194.750 39.539 C 191.152 40.826,190.104 46.786,192.445 52.639 C 196.129 61.846,205.584 60.430,204.755 50.795 C 204.136 43.598,199.134 37.970,194.750 39.539 M330.645 40.474 C 330.129 40.645,329.248 41.064,328.687 41.405 L 327.667 42.024 327.667 47.574 C 327.667 53.847,327.665 53.839,328.926 55.605 C 331.768 59.588,337.026 59.989,338.900 56.365 C 340.416 53.434,339.858 46.489,337.857 43.370 C 336.139 40.692,333.356 39.575,330.645 40.474 M254.245 45.395 C 255.758 48.541,256.015 52.108,254.963 55.375 L 254.601 56.500 250.370 56.500 L 246.139 56.500 246.465 55.958 C 246.644 55.660,247.865 53.579,249.177 51.333 C 254.128 42.859,253.423 43.686,254.245 45.395 M238.296 46.375 C 237.836 47.089,235.714 50.763,234.085 53.667 C 233.184 55.271,232.166 57.061,231.822 57.645 L 231.197 58.707 230.694 57.827 C 228.905 54.694,228.526 50.625,229.689 47.042 L 230.027 46.000 234.283 46.000 L 238.538 46.000 238.296 46.375 M310.790 47.161 C 307.406 48.179,305.946 48.898,304.871 50.074 C 302.355 52.827,303.937 56.669,307.583 56.661 C 310.055 56.656,312.258 54.293,313.330 50.495 C 313.787 48.876,313.984 46.325,313.650 46.352 C 313.522 46.362,312.235 46.726,310.790 47.161 M237.636 55.083 C 238.536 56.642,240.139 59.392,241.199 61.195 C 243.416 64.965,243.429 64.776,240.964 64.496 C 237.474 64.100,234.593 62.616,232.284 60.026 L 231.652 59.316 232.140 58.450 C 234.957 53.449,235.724 52.158,235.851 52.200 C 235.933 52.228,236.737 53.525,237.636 55.083 M254.167 57.270 C 254.167 57.672,252.705 59.643,251.585 60.750 C 249.671 62.641,247.031 64.020,244.583 64.407 L 243.917 64.512 241.833 60.977 C 240.688 59.033,239.725 57.380,239.694 57.305 C 239.664 57.229,242.908 57.167,246.903 57.167 C 250.898 57.167,254.167 57.213,254.167 57.270 M114.494 60.136 C 112.495 61.819,112.288 64.869,114.057 66.583 C 117.206 69.635,126.256 68.029,128.169 64.079 C 129.635 61.051,128.382 60.373,120.633 60.003 C 118.643 59.908,116.581 59.787,116.049 59.735 C 115.154 59.647,115.040 59.676,114.494 60.136 M263.551 60.437 C 262.146 61.847,261.763 63.958,262.604 65.646 C 265.029 70.512,277.822 67.890,277.832 62.525 C 277.835 60.590,277.095 60.358,269.750 59.996 C 267.917 59.905,265.954 59.785,265.389 59.727 L 264.361 59.623 263.551 60.437 " stroke="none" fill="#ffffff" fill-rule="evenodd"></path></g></svg>