<svg id="svg" version="1.1" xmlns="http://www.w3.org/2000/svg" xmlns:xlink="http://www.w3.org/1999/xlink" width="400" height="320" viewBox="0, 0, 400,320"><g id="svgg"><path id="path0" d="M193.927 70.171 C 131.080 74.781,92.127 140.089,118.099 197.301 C 137.373 239.761,186.531 260.537,230.350 244.743 C 275.601 228.433,300.113 179.519,286.054 133.583 C 273.897 93.864,235.088 67.151,193.927 70.171 M208.333 74.416 C 260.893 79.821,296.217 130.157,283.307 181.250 C 273.385 220.516,236.374 247.920,196.042 245.865 C 141.231 243.072,103.101 191.218,116.847 138.167 C 127.336 97.684,166.849 70.150,208.333 74.416 M195.958 78.115 C 195.579 78.214,195.442 77.901,197.312 81.190 C 198.790 83.790,202.109 89.642,220.412 121.917 C 224.977 129.967,228.799 136.639,235.590 148.417 C 239.126 154.548,239.924 155.884,240.060 155.900 C 240.139 155.909,242.786 151.529,245.942 146.167 C 249.098 140.804,252.455 135.104,253.402 133.500 C 261.303 120.118,266.167 111.810,266.167 111.695 C 266.167 111.619,265.738 111.000,265.214 110.320 C 250.608 91.351,229.225 79.839,205.500 78.173 C 203.122 78.006,196.529 77.966,195.958 78.115 M188.628 78.761 C 163.026 82.263,139.782 98.520,127.659 121.404 L 126.637 123.333 171.659 123.333 L 216.681 123.333 216.271 122.625 C 216.046 122.235,214.459 119.442,212.745 116.417 C 206.287 105.021,202.416 98.192,198.336 91.000 C 196.022 86.921,193.481 82.440,192.689 81.042 C 191.043 78.135,191.466 78.373,188.628 78.761 M267.798 116.867 C 267.293 117.719,264.517 122.429,261.628 127.333 C 258.740 132.237,252.155 143.412,246.995 152.167 C 238.900 165.898,223.500 192.401,223.500 192.600 C 223.500 192.637,235.147 192.667,249.382 192.667 L 275.263 192.667 276.234 190.227 C 285.619 166.631,283.451 139.715,270.415 118.000 C 269.617 116.671,268.909 115.523,268.841 115.450 C 268.773 115.377,268.304 116.015,267.798 116.867 M124.354 128.292 C 115.045 150.809,115.977 175.693,126.933 197.167 C 128.473 200.186,131.635 205.525,131.933 205.609 C 132.016 205.632,136.696 197.431,142.333 187.385 C 156.239 162.603,158.259 159.035,164.494 148.250 C 174.267 131.347,176.500 127.468,176.500 127.400 C 176.500 127.363,164.856 127.333,150.625 127.334 L 124.750 127.334 124.354 128.292 M159.700 164.875 C 159.521 165.173,157.254 169.167,154.663 173.750 C 150.365 181.353,146.419 188.318,137.636 203.805 L 134.486 209.361 135.781 210.972 C 150.455 229.227,171.338 240.200,194.500 241.827 C 197.124 242.011,202.997 242.029,204.549 241.857 L 205.514 241.750 197.738 228.583 C 193.461 221.342,187.482 211.217,184.451 206.083 C 179.803 198.210,168.147 178.126,161.942 167.297 C 160.068 164.026,160.155 164.121,159.700 164.875 M184.095 197.458 C 185.568 199.994,207.693 237.666,209.507 240.727 L 209.888 241.371 211.069 241.256 C 214.521 240.921,221.251 239.359,225.833 237.829 C 245.714 231.192,262.561 216.984,272.320 198.625 L 273.361 196.667 228.498 196.667 L 183.635 196.667 184.095 197.458 " stroke="none" fill="#1a1a1a" fill-rule="evenodd"></path><path id="path1" d="M0.000 160.000 L 0.000 320.000 200.000 320.000 L 400.000 320.000 400.000 160.000 L 400.000 0.000 200.000 0.000 L 0.000 0.000 0.000 160.000 M208.917 70.415 C 270.434 76.927,307.384 141.166,281.901 197.301 C 261.673 241.861,208.825 262.150,164.083 242.533 C 117.937 222.300,97.299 168.518,118.099 122.699 C 133.929 87.826,171.121 66.414,208.917 70.415 M195.583 74.103 C 129.228 77.658,91.566 152.596,128.478 207.627 C 166.741 264.672,253.016 256.250,279.426 192.891 C 303.577 134.950,258.260 70.744,195.583 74.103 M205.500 78.173 C 229.225 79.839,250.608 91.351,265.214 110.320 C 265.738 111.000,266.167 111.619,266.167 111.695 C 266.167 111.810,261.303 120.118,253.402 133.500 C 252.455 135.104,249.098 140.804,245.942 146.167 C 242.786 151.529,240.139 155.909,240.060 155.900 C 239.924 155.884,239.126 154.548,235.590 148.417 C 228.799 136.639,224.977 129.967,220.412 121.917 C 202.109 89.642,198.790 83.790,197.312 81.190 C 196.407 79.599,195.667 78.273,195.667 78.244 C 195.667 77.978,202.060 77.931,205.500 78.173 M192.689 81.042 C 193.481 82.440,196.022 86.921,198.336 91.000 C 202.416 98.192,206.287 105.021,212.745 116.417 C 214.459 119.442,216.046 122.235,216.271 122.625 L 216.681 123.333 171.659 123.333 L 126.637 123.333 127.659 121.404 C 139.782 98.520,163.026 82.263,188.628 78.761 C 191.466 78.373,191.043 78.135,192.689 81.042 M270.415 118.000 C 283.451 139.715,285.619 166.631,276.234 190.227 L 275.263 192.667 249.382 192.667 C 235.147 192.667,223.500 192.637,223.500 192.600 C 223.500 192.401,238.900 165.898,246.995 152.167 C 252.155 143.412,258.740 132.237,261.628 127.333 C 264.517 122.429,267.293 117.719,267.798 116.867 C 268.304 116.015,268.773 115.377,268.841 115.450 C 268.909 115.523,269.617 116.671,270.415 118.000 M176.500 127.400 C 176.500 127.468,174.267 131.347,164.494 148.250 C 158.259 159.035,156.239 162.603,142.333 187.385 C 136.696 197.431,132.016 205.632,131.933 205.609 C 131.635 205.525,128.473 200.186,126.933 197.167 C 115.977 175.693,115.045 150.809,124.354 128.292 L 124.750 127.334 150.625 127.334 C 164.856 127.333,176.500 127.363,176.500 127.400 M161.942 167.297 C 168.147 178.126,179.803 198.210,184.451 206.083 C 187.482 211.217,193.461 221.342,197.738 228.583 L 205.514 241.750 204.549 241.857 C 202.997 242.029,197.124 242.011,194.500 241.827 C 171.338 240.200,150.455 229.227,135.781 210.972 L 134.486 209.361 137.636 203.805 C 146.419 188.318,150.365 181.353,154.663 173.750 C 159.996 164.315,159.987 164.331,160.139 164.339 C 160.200 164.342,161.011 165.673,161.942 167.297 M272.320 198.625 C 262.561 216.984,245.714 231.192,225.833 237.829 C 221.251 239.359,214.521 240.921,211.069 241.256 L 209.888 241.371 209.507 240.727 C 207.693 237.666,185.568 199.994,184.095 197.458 L 183.635 196.667 228.498 196.667 L 273.361 196.667 272.320 198.625 " stroke="none" fill="#ffffff" fill-rule="evenodd"></path></g></svg>