<svg id="svg" xmlns="http://www.w3.org/2000/svg" xmlns:xlink="http://www.w3.org/1999/xlink" width="400" height="400" viewBox="0, 0, 400,400"><g id="svgg"><path id="path0" d="M190.734 22.213 C 184.357 22.610,179.897 23.069,174.587 23.875 C 77.777 38.562,11.102 126.851,23.489 223.955 C 36.493 325.904,133.987 395.907,235.413 376.122 C 303.946 362.752,359.228 309.218,374.935 241.009 C 380.674 216.090,380.965 189.073,375.764 164.220 C 359.911 88.479,296.603 31.132,219.817 22.956 C 216.520 22.606,215.048 22.486,210.642 22.210 C 207.981 22.043,193.426 22.045,190.734 22.213 M207.982 30.095 C 309.044 34.721,383.952 124.891,369.818 224.903 C 359.475 298.096,301.835 357.134,228.976 369.162 C 117.709 387.531,19.665 295.610,30.834 183.394 C 39.734 93.970,118.290 25.990,207.982 30.095 M194.406 37.921 C 191.803 38.016,191.842 37.860,193.627 41.029 C 196.449 46.038,201.496 54.939,202.200 56.147 C 202.582 56.803,204.129 59.528,205.639 62.202 C 207.148 64.876,211.711 72.927,215.778 80.092 C 219.846 87.257,223.685 94.028,224.310 95.138 C 224.936 96.248,229.479 104.257,234.406 112.936 C 239.333 121.615,244.041 129.913,244.869 131.376 C 245.697 132.839,247.241 135.564,248.300 137.431 C 249.359 139.298,251.113 142.394,252.198 144.312 C 254.273 147.980,258.287 154.969,260.367 158.532 C 261.044 159.693,263.192 163.408,265.139 166.789 C 267.087 170.170,269.397 174.174,270.272 175.688 C 272.045 178.753,278.638 190.178,279.528 191.729 C 280.253 192.992,280.383 193.023,280.916 192.068 C 281.157 191.637,282.232 189.798,283.306 187.982 C 284.380 186.165,286.254 182.986,287.471 180.917 C 288.687 178.849,290.776 175.298,292.112 173.028 C 293.448 170.757,297.966 163.078,302.152 155.963 C 306.337 148.849,310.278 142.161,310.909 141.101 C 311.541 140.041,313.072 137.440,314.313 135.321 C 315.554 133.202,317.206 130.394,317.983 129.083 C 318.761 127.771,319.684 126.202,320.035 125.596 C 320.386 124.991,321.649 122.844,322.841 120.826 C 324.034 118.807,326.652 114.366,328.659 110.956 L 332.308 104.756 330.527 102.424 C 298.000 59.819,247.685 35.977,194.406 37.921 M179.775 39.191 C 129.048 45.713,84.055 76.146,58.679 121.101 C 56.630 124.730,55.044 127.827,55.170 127.953 C 55.355 128.138,233.541 128.098,233.656 127.912 C 233.711 127.824,231.931 124.542,229.702 120.619 C 225.340 112.942,222.287 107.558,218.168 100.275 C 216.475 97.282,206.958 80.515,203.680 74.750 C 202.009 71.811,196.761 62.548,192.018 54.163 C 187.275 45.779,183.312 38.887,183.211 38.846 C 183.110 38.806,181.564 38.961,179.775 39.191 M336.308 113.532 C 334.831 116.054,329.344 125.367,328.443 126.881 C 327.449 128.551,322.291 137.308,319.634 141.835 C 318.657 143.500,316.882 146.514,315.689 148.532 C 313.667 151.951,310.643 157.085,305.421 165.963 C 300.473 174.376,298.761 177.281,297.418 179.541 C 296.638 180.853,295.471 182.835,294.823 183.945 C 294.175 185.055,292.671 187.615,291.480 189.633 C 290.289 191.651,288.322 194.995,287.109 197.064 C 285.896 199.133,284.555 201.404,284.129 202.110 C 283.703 202.817,282.216 205.335,280.823 207.706 C 279.431 210.078,277.656 213.092,276.879 214.404 C 274.614 218.227,266.515 232.216,261.741 240.550 C 260.462 242.783,253.450 254.932,250.674 259.725 C 248.425 263.606,247.524 265.221,247.523 265.367 C 247.523 265.443,270.630 265.505,298.871 265.505 L 350.220 265.505 350.499 264.817 C 350.653 264.438,351.315 262.807,351.971 261.193 C 371.462 213.202,366.050 155.952,337.968 113.077 C 337.183 111.878,337.295 111.847,336.308 113.532 M50.969 136.651 C 50.815 137.030,50.153 138.661,49.497 140.275 C 31.097 185.579,34.708 238.579,59.094 281.101 C 60.842 284.150,64.531 290.119,65.377 291.269 C 65.616 291.593,65.744 291.425,67.061 289.067 C 67.846 287.663,69.004 285.606,69.636 284.495 C 70.649 282.715,86.899 253.814,89.031 250.000 C 90.064 248.151,93.698 241.682,95.266 238.899 C 95.921 237.739,97.406 235.096,98.568 233.028 C 101.895 227.102,105.590 220.529,107.336 217.431 C 108.217 215.867,109.913 212.853,111.105 210.734 C 115.867 202.264,116.666 200.854,118.958 196.881 C 120.268 194.610,121.933 191.720,122.659 190.459 C 123.384 189.197,125.698 185.193,127.801 181.560 C 129.904 177.927,132.214 173.922,132.934 172.661 C 134.206 170.434,138.219 163.490,141.470 157.890 C 142.349 156.376,144.661 152.372,146.607 148.991 C 148.553 145.610,150.866 141.606,151.747 140.092 C 153.364 137.313,153.945 136.249,153.945 136.064 C 153.945 136.009,130.838 135.963,102.597 135.963 L 51.248 135.963 50.969 136.651 M115.138 220.226 C 111.706 226.299,108.192 232.510,107.329 234.028 C 105.285 237.621,102.910 241.811,100.460 246.147 C 99.377 248.064,97.973 250.541,97.340 251.651 C 96.707 252.761,91.255 262.381,85.225 273.028 C 79.195 283.674,73.488 293.746,72.543 295.410 C 70.497 299.013,70.540 298.569,72.056 300.524 C 104.771 342.699,158.159 367.038,209.897 363.366 C 211.932 363.221,211.977 363.608,209.422 359.296 C 208.246 357.312,206.480 354.326,205.499 352.661 C 204.517 350.995,202.371 347.362,200.731 344.587 C 199.090 341.812,196.920 338.138,195.908 336.422 C 194.897 334.706,193.311 332.023,192.383 330.459 C 191.456 328.894,189.847 326.170,188.807 324.404 C 187.768 322.638,186.283 320.119,185.507 318.807 C 184.730 317.495,183.268 315.018,182.257 313.303 C 181.245 311.587,179.099 307.954,177.487 305.229 C 175.875 302.505,172.755 297.220,170.554 293.486 C 168.352 289.752,165.915 285.624,165.137 284.312 C 164.359 283.000,162.873 280.482,161.835 278.716 C 160.797 276.950,159.434 274.638,158.806 273.578 C 158.178 272.518,156.857 270.248,155.869 268.532 C 154.882 266.817,153.453 264.339,152.694 263.028 C 151.934 261.716,150.723 259.610,150.001 258.349 C 149.280 257.087,147.136 253.372,145.237 250.092 C 139.631 240.410,134.362 231.296,132.668 228.349 C 125.230 215.408,121.597 209.175,121.496 209.180 C 121.430 209.182,118.569 214.153,115.138 220.226 M168.370 273.543 C 168.319 273.625,169.438 275.669,170.857 278.085 C 175.674 286.290,177.852 289.996,178.992 291.927 C 179.618 292.986,182.384 297.693,185.138 302.385 C 187.892 307.078,191.771 313.683,193.759 317.064 C 195.746 320.445,197.662 323.706,198.015 324.312 C 198.368 324.917,199.897 327.518,201.411 330.092 C 202.925 332.665,206.419 338.610,209.174 343.303 C 220.104 361.920,220.386 362.385,220.749 362.385 C 222.750 362.385,234.309 360.233,240.393 358.727 C 281.742 348.495,318.473 321.162,340.566 284.185 C 342.940 280.212,346.433 273.744,346.311 273.546 C 346.189 273.350,168.492 273.347,168.370 273.543 " stroke="none" fill="#000000" fill-rule="evenodd"></path></g></svg>