<svg id="svg" version="1.1" xmlns="http://www.w3.org/2000/svg" xmlns:xlink="http://www.w3.org/1999/xlink" width="400" height="400" viewBox="0, 0, 400,400"><g id="svgg"><path id="path0" d="M196.610 8.214 C 191.200 10.618,190.998 10.839,192.826 12.365 C 194.582 13.831,194.742 16.240,194.775 41.723 C 194.802 62.572,194.665 64.346,192.946 65.472 C 190.718 66.932,191.627 67.200,198.800 67.200 C 205.808 67.200,207.123 66.843,204.766 65.582 C 202.605 64.425,202.610 64.484,202.482 34.534 C 202.393 13.550,202.248 6.774,201.882 6.477 C 201.550 6.207,199.910 6.748,196.610 8.214 M215.294 18.169 C 212.040 21.151,214.082 26.800,218.414 26.800 C 222.175 26.800,224.547 23.814,223.577 20.301 C 222.580 16.690,218.152 15.550,215.294 18.169 M137.505 25.026 C 134.416 26.702,134.467 32.180,137.587 33.793 C 142.176 36.167,146.985 31.412,144.620 26.840 C 143.425 24.527,140.023 23.660,137.505 25.026 M215.900 31.658 C 211.141 33.287,210.467 33.834,211.937 34.877 C 213.912 36.279,213.948 37.139,212.631 51.465 C 211.606 62.609,210.985 65.234,209.240 65.787 C 208.599 65.991,207.970 67.193,208.500 67.202 C 208.555 67.203,211.480 67.470,215.000 67.797 C 218.520 68.123,221.535 68.393,221.700 68.395 C 221.865 68.398,222.000 68.130,222.000 67.800 C 222.000 67.470,221.817 67.200,221.594 67.200 C 219.363 67.200,219.232 63.919,220.775 46.800 C 222.387 28.923,222.339 30.214,221.394 30.124 C 220.957 30.082,218.485 30.772,215.900 31.658 M171.019 30.845 C 161.365 32.251,156.270 38.316,158.492 45.754 C 159.690 49.764,162.879 51.474,172.705 53.375 C 181.752 55.124,184.761 57.616,183.829 62.584 C 182.199 71.277,167.889 69.041,160.900 59.001 C 159.543 57.051,159.465 58.055,160.588 63.060 C 161.776 68.353,161.616 68.152,165.279 68.988 C 178.138 71.924,189.077 65.865,188.304 56.233 C 187.794 49.890,185.090 47.876,174.055 45.623 C 163.793 43.528,160.179 40.166,163.280 35.600 C 166.875 30.307,175.528 31.000,181.171 37.033 C 184.142 40.208,184.430 39.897,183.355 34.674 L 182.600 31.010 181.000 30.728 C 178.884 30.355,173.985 30.412,171.019 30.845 M236.200 33.663 C 230.977 34.586,230.747 34.746,232.189 36.460 C 233.635 38.179,233.529 38.998,230.191 51.800 C 227.274 62.992,226.427 65.109,224.509 66.000 C 222.314 67.020,222.984 67.426,229.674 69.133 C 236.956 70.992,236.883 70.996,235.622 68.754 C 234.419 66.613,234.493 66.106,238.051 52.118 L 240.920 40.837 243.539 39.789 C 251.982 36.409,258.763 39.569,258.791 46.898 C 258.802 49.603,254.454 67.185,253.079 70.000 C 252.558 71.068,251.587 72.195,250.692 72.772 C 248.720 74.043,248.815 74.101,255.600 75.791 C 258.790 76.586,261.715 77.330,262.100 77.445 C 263.030 77.723,262.987 76.963,262.000 75.709 C 260.707 74.065,261.001 71.766,264.036 59.789 C 267.128 47.585,267.302 45.721,265.642 42.495 C 262.677 36.730,254.323 34.893,245.360 38.036 L 241.320 39.452 242.073 36.510 C 243.154 32.292,243.370 32.397,236.200 33.663 M100.683 38.698 L 98.095 41.792 99.809 43.396 C 101.854 45.310,101.535 42.989,103.245 68.400 C 104.570 88.086,104.554 89.950,103.046 92.858 C 101.705 95.442,102.065 95.495,106.611 93.385 C 110.652 91.509,110.806 91.305,108.700 90.614 C 106.239 89.806,105.936 88.579,105.016 75.694 L 104.780 72.387 113.848 67.994 L 122.915 63.601 124.958 65.352 C 134.106 73.194,136.203 75.406,136.124 77.137 C 136.035 79.092,136.184 79.125,138.879 77.760 C 144.361 74.982,146.697 74.076,146.648 74.747 C 146.589 75.554,146.184 75.624,153.500 73.568 C 159.817 71.793,160.497 71.341,158.305 70.372 C 156.259 69.468,155.557 67.668,150.943 51.491 C 148.560 43.137,146.387 36.216,146.114 36.112 C 145.421 35.846,137.184 42.692,137.429 43.330 C 137.536 43.611,138.203 44.012,138.911 44.221 C 140.816 44.783,141.566 46.534,144.785 57.935 C 148.183 69.973,148.533 72.000,147.212 72.000 C 144.560 72.000,140.047 68.294,107.935 39.750 L 103.271 35.604 100.683 38.698 M112.778 54.580 L 122.003 62.760 118.701 64.333 C 116.886 65.199,113.091 67.023,110.268 68.388 C 107.445 69.753,105.036 70.769,104.914 70.647 C 104.489 70.223,102.979 46.400,103.376 46.400 C 103.473 46.400,107.704 50.081,112.778 54.580 M282.432 50.657 C 274.783 53.335,270.993 61.381,274.269 67.989 L 275.437 70.347 273.419 70.607 C 266.960 71.440,264.279 76.477,268.074 80.651 L 268.847 81.502 266.683 81.772 C 250.062 83.849,250.411 98.521,267.192 103.171 C 279.561 106.599,294.212 101.686,295.100 93.814 C 295.536 89.944,294.035 88.453,283.267 82.060 C 273.822 76.452,271.927 74.625,273.388 72.538 C 274.452 71.020,275.965 71.098,277.990 72.776 C 291.184 83.704,310.863 71.068,301.747 57.521 C 300.296 55.365,300.347 55.074,302.267 54.561 C 302.938 54.382,303.874 54.969,306.402 57.153 C 310.037 60.295,311.435 60.814,313.704 59.866 C 321.353 56.670,310.138 50.754,301.781 53.577 L 299.182 54.454 296.751 52.831 C 292.603 50.061,286.696 49.164,282.432 50.657 M293.246 52.173 C 299.329 56.307,296.105 74.052,288.945 75.850 C 282.967 77.350,278.833 70.959,280.548 62.869 C 282.544 53.459,288.168 48.722,293.246 52.173 M271.805 83.727 C 272.902 84.457,276.140 86.379,279.000 87.997 C 288.126 93.160,289.600 94.390,289.600 96.845 C 289.600 104.038,272.772 104.155,264.872 97.017 C 259.742 92.383,261.049 85.374,267.483 83.013 C 269.583 82.242,269.571 82.241,271.805 83.727 M188.800 88.038 C 93.236 98.679,53.102 215.080,122.215 281.153 C 191.334 347.231,305.980 302.421,312.422 206.809 C 317.023 138.544,256.596 80.489,188.800 88.038 M213.984 93.436 C 286.589 102.898,328.780 181.119,296.795 246.964 C 261.863 318.875,162.231 328.560,114.271 264.706 C 62.590 195.898,107.623 98.949,194.200 92.634 C 197.872 92.366,209.345 92.831,213.984 93.436 M194.800 97.791 C 194.800 97.961,196.759 101.543,199.152 105.750 C 203.539 113.461,213.152 130.396,221.317 144.800 C 226.301 153.591,240.775 178.868,246.439 188.672 L 250.178 195.145 252.944 190.472 C 281.177 142.766,282.849 139.838,282.373 138.949 C 281.494 137.307,274.153 129.008,270.772 125.835 C 255.023 111.051,236.923 102.176,215.200 98.585 C 211.127 97.912,194.800 97.276,194.800 97.791 M182.757 99.006 C 155.712 103.703,132.226 118.575,116.124 141.200 C 113.767 144.512,108.400 153.468,108.400 154.090 C 108.400 154.260,133.690 154.400,164.600 154.400 C 195.510 154.400,220.800 154.302,220.800 154.182 C 220.800 154.063,219.604 151.858,218.143 149.282 C 215.119 143.953,208.118 131.623,199.815 117.000 C 196.692 111.500,192.989 104.975,191.587 102.500 C 190.184 100.025,188.849 98.014,188.618 98.030 C 188.388 98.047,185.750 98.486,182.757 99.006 M285.718 144.883 C 285.493 145.167,282.341 150.440,278.713 156.600 C 275.085 162.760,266.804 176.800,260.310 187.800 C 248.598 207.637,229.600 240.325,229.600 240.637 C 229.600 240.727,244.141 240.800,261.914 240.800 L 294.229 240.800 295.677 237.100 C 306.778 208.728,304.427 176.084,289.381 149.669 C 286.295 144.252,286.256 144.201,285.718 144.883 M105.153 161.100 C 93.906 187.208,95.403 221.080,108.951 247.029 C 111.073 251.094,114.815 257.329,115.004 257.116 C 115.061 257.052,122.444 243.950,131.413 228.000 C 140.381 212.050,149.912 195.220,152.591 190.600 C 165.336 168.629,169.979 160.544,170.222 159.900 C 170.472 159.237,168.783 159.200,138.229 159.200 L 105.972 159.200 105.153 161.100 M149.296 206.871 C 148.481 208.216,144.008 216.087,128.198 244.000 C 123.400 252.470,119.218 259.796,118.904 260.280 C 118.060 261.584,118.258 261.955,122.391 266.819 C 137.810 284.962,159.164 296.927,183.800 301.226 C 190.128 302.330,207.060 302.855,206.708 301.936 C 206.586 301.620,198.935 288.590,189.705 272.980 C 180.475 257.371,171.572 242.260,169.921 239.400 C 147.772 201.037,150.359 205.117,149.296 206.871 M66.520 244.135 C 67.313 246.202,66.091 247.092,49.000 256.896 C 30.470 267.526,30.970 267.293,28.100 266.635 C 26.377 266.239,26.377 266.239,29.721 271.970 C 32.706 277.086,33.600 278.067,33.600 276.227 C 33.600 273.918,46.797 264.995,47.800 266.626 C 55.678 279.436,62.749 282.974,71.613 278.539 C 78.838 274.924,80.250 267.391,75.500 257.800 C 72.871 252.492,67.497 243.600,66.918 243.600 C 66.578 243.600,66.404 243.834,66.520 244.135 M180.000 246.047 C 180.000 246.294,182.549 250.839,185.665 256.147 C 188.781 261.456,195.556 273.000,200.720 281.800 C 212.770 302.332,212.303 301.600,213.342 301.599 C 228.133 301.590,255.089 288.861,270.170 274.764 C 278.184 267.273,291.600 249.286,291.600 246.033 C 291.600 245.724,275.564 245.600,235.800 245.600 C 194.923 245.600,180.000 245.720,180.000 246.047 M344.020 249.565 C 343.126 251.096,342.293 252.612,342.170 252.934 C 341.907 253.619,342.627 254.204,342.996 253.607 C 343.576 252.668,345.633 253.202,347.204 254.700 C 349.098 256.507,360.485 271.359,360.083 271.498 C 359.280 271.778,336.301 269.216,335.788 268.790 C 335.465 268.522,335.200 267.949,335.200 267.518 C 335.200 265.914,334.132 267.185,331.465 271.963 C 328.556 277.173,328.470 277.625,330.529 276.880 C 333.211 275.910,335.763 275.995,350.779 277.553 C 368.337 279.374,366.471 278.730,369.048 283.863 L 370.485 286.726 367.803 290.241 C 364.085 295.114,363.591 296.868,365.196 299.500 C 367.574 303.400,372.291 296.998,371.901 290.400 C 371.580 284.982,370.081 282.476,356.828 265.200 C 347.946 253.622,346.400 251.183,346.400 248.745 C 346.400 246.360,345.764 246.580,344.020 249.565 M72.984 255.474 C 75.854 261.336,74.232 267.370,68.687 271.451 C 61.294 276.894,53.864 275.305,49.535 267.356 L 48.469 265.400 59.728 258.929 C 67.014 254.741,71.142 252.586,71.425 252.820 C 71.665 253.020,72.367 254.214,72.984 255.474 M83.959 267.500 C 83.937 267.665,83.950 268.375,83.988 269.078 C 84.082 270.810,83.277 271.642,67.074 286.547 C 52.469 299.982,51.340 300.879,49.232 300.715 C 47.094 300.548,47.351 301.110,51.463 305.600 C 55.602 310.118,56.274 310.540,56.069 308.497 C 55.841 306.215,57.774 304.132,71.923 291.414 L 73.647 289.865 76.584 290.557 C 82.341 291.914,85.469 295.153,85.117 299.393 C 84.863 302.463,83.788 303.854,76.477 310.579 C 68.347 318.057,67.875 318.400,65.722 318.400 C 63.342 318.400,63.469 318.699,67.861 323.436 C 72.160 328.071,72.400 328.215,72.400 326.147 C 72.400 323.958,73.406 322.693,79.872 316.755 C 83.132 313.760,86.592 310.520,87.560 309.555 C 94.934 302.204,90.326 293.002,77.713 289.888 L 74.336 289.054 75.749 287.827 C 80.763 283.473,93.200 271.737,93.200 271.359 C 93.200 270.523,84.066 266.709,83.959 267.500 M324.526 282.193 C 320.056 284.462,316.417 290.936,316.394 296.658 C 316.382 299.621,316.172 299.499,306.269 290.777 C 301.038 286.170,296.602 282.400,296.412 282.400 C 295.930 282.400,293.077 291.102,293.337 291.779 C 293.488 292.174,294.002 292.270,295.144 292.117 C 297.233 291.837,296.560 291.318,313.531 306.269 C 328.861 319.774,330.516 321.457,330.322 323.349 C 330.106 325.444,330.956 324.901,334.961 320.383 C 339.177 315.627,339.263 315.386,336.681 315.545 C 335.341 315.627,334.655 315.406,333.394 314.483 C 331.687 313.234,321.268 304.137,318.574 301.544 L 316.947 299.978 317.290 297.110 C 318.241 289.145,323.638 285.427,329.400 288.767 C 335.083 292.061,346.521 303.428,346.305 305.567 C 346.122 307.375,347.039 306.715,350.948 302.228 C 355.072 297.495,355.201 297.169,352.817 297.488 C 350.737 297.767,350.356 297.508,341.817 290.000 C 331.643 281.054,329.063 279.890,324.526 282.193 M297.708 309.016 C 293.418 310.171,289.894 313.493,287.368 318.764 L 285.844 321.944 284.622 320.176 C 282.975 317.793,282.949 317.807,280.074 322.602 C 277.539 326.829,277.311 327.780,278.925 327.393 C 280.735 326.958,282.202 328.674,292.638 343.436 C 306.367 362.856,306.071 362.341,305.186 365.200 C 304.821 366.377,306.123 365.755,310.625 362.600 C 315.448 359.221,316.078 358.400,313.854 358.400 C 311.902 358.400,311.021 357.524,306.272 350.864 C 301.306 343.900,301.571 344.563,303.647 344.284 C 309.365 343.518,315.759 337.298,317.184 331.117 C 319.914 319.283,308.342 306.152,297.708 309.016 M96.362 312.759 C 86.559 315.895,81.341 326.894,85.517 335.619 C 92.456 350.116,112.344 350.051,119.002 335.509 C 124.790 322.865,110.296 308.301,96.362 312.759 M107.828 313.957 C 114.066 316.790,114.937 328.058,109.670 337.773 C 102.115 351.707,87.552 344.220,91.539 328.451 C 94.335 317.397,101.454 311.062,107.828 313.957 M302.178 315.559 C 307.909 318.381,313.937 325.803,314.957 331.294 C 316.153 337.738,308.563 342.355,301.000 339.785 C 297.844 338.712,297.178 338.032,291.784 330.362 L 286.695 323.126 287.159 321.580 C 289.096 315.114,295.808 312.424,302.178 315.559 M134.517 323.359 C 127.064 325.859,126.781 326.081,129.498 327.291 L 131.539 328.200 126.576 339.809 C 119.591 356.151,119.376 359.076,124.991 361.422 C 127.730 362.566,135.406 361.415,137.373 359.565 C 138.073 358.906,137.229 358.691,135.978 359.209 C 132.035 360.842,128.000 358.916,128.000 355.400 C 128.000 353.659,137.474 331.200,138.209 331.200 C 138.470 331.200,140.543 332.013,142.815 333.007 C 145.344 334.112,147.090 334.670,147.316 334.444 C 147.757 334.003,147.393 333.797,142.600 331.784 C 140.620 330.952,138.857 330.148,138.682 329.998 C 138.507 329.847,139.092 328.045,139.982 325.993 C 142.332 320.575,142.529 320.670,134.517 323.359 M263.642 328.633 C 257.854 330.190,252.488 335.494,250.625 341.500 C 250.050 343.356,251.137 342.305,252.357 339.826 C 256.182 332.057,265.139 329.897,269.179 335.769 C 270.857 338.208,270.851 338.221,266.526 341.600 C 255.215 350.438,252.583 354.997,255.459 360.768 C 260.721 371.328,273.956 364.104,274.019 350.638 L 274.037 346.600 275.606 350.400 C 279.083 358.823,279.013 358.772,284.212 356.730 C 287.775 355.330,288.377 354.655,286.414 354.263 C 284.707 353.921,283.630 352.061,279.780 342.799 C 274.078 329.084,271.238 326.590,263.642 328.633 M213.121 336.937 C 210.941 337.550,208.751 338.920,206.876 340.842 L 205.553 342.200 201.276 342.222 C 188.430 342.287,181.649 356.780,191.340 363.458 L 193.196 364.737 191.898 365.541 C 187.298 368.388,186.629 373.587,190.618 375.489 C 192.376 376.327,192.399 376.268,189.475 378.401 C 180.528 384.930,183.749 394.414,194.908 394.394 C 206.258 394.374,218.457 385.527,218.457 377.317 C 218.457 372.156,217.037 371.628,199.981 370.451 C 194.093 370.044,192.400 369.419,192.400 367.652 C 192.400 365.685,193.563 365.045,196.104 365.614 C 203.130 367.186,210.270 363.875,213.077 357.744 C 215.489 352.475,213.093 345.709,208.078 343.632 C 206.607 343.023,206.473 342.420,207.586 341.413 C 208.420 340.658,208.557 340.668,212.748 341.789 C 215.934 342.642,217.625 342.361,218.976 340.756 C 221.615 337.619,218.327 335.474,213.121 336.937 M238.125 337.629 C 234.920 338.645,231.708 341.508,230.049 344.829 C 228.677 347.574,228.665 347.568,227.981 343.685 C 227.175 339.115,227.234 339.129,222.496 342.411 C 217.753 345.696,217.983 345.327,219.924 346.552 C 221.784 347.726,221.857 347.950,224.213 359.665 C 226.233 369.709,226.389 371.832,225.200 373.108 C 224.496 373.864,224.133 374.800,224.545 374.800 C 224.740 374.800,234.363 372.865,235.500 372.597 C 236.699 372.314,236.637 371.759,235.334 371.122 C 233.660 370.303,232.954 368.371,231.219 359.866 C 229.268 350.307,229.204 348.526,230.700 345.572 L 231.800 343.400 236.668 343.400 C 242.364 343.400,243.410 342.937,244.359 339.996 C 245.352 336.921,243.081 336.059,238.125 337.629 M156.107 338.835 C 144.379 342.551,140.023 358.309,148.407 366.693 C 160.219 378.505,180.000 370.572,180.000 354.022 C 180.000 343.184,167.486 335.230,156.107 338.835 M164.313 339.420 C 175.404 344.046,174.797 370.313,163.580 371.124 C 156.009 371.672,151.230 364.403,151.702 353.059 C 152.148 342.352,157.490 336.574,164.313 339.420 M272.066 342.100 C 274.803 351.023,271.606 359.267,265.409 359.267 C 259.766 359.267,257.608 353.277,261.257 347.745 C 261.967 346.669,270.557 339.200,271.085 339.200 C 271.136 339.200,271.577 340.505,272.066 342.100 M203.227 345.026 C 205.871 347.608,208.003 353.040,207.998 357.184 C 207.985 367.270,197.838 367.617,194.308 357.652 C 190.691 347.442,196.818 338.769,203.227 345.026 M203.273 377.181 C 214.496 377.729,216.270 378.540,215.146 382.610 C 212.650 391.652,192.236 393.428,189.974 384.800 C 189.120 381.546,192.076 375.876,194.272 376.553 C 194.672 376.676,198.723 376.959,203.273 377.181 " stroke="none" fill="#000000" fill-rule="evenodd"></path></g></svg>